
<svg width="426" height="318" viewBox="0 0 426 318" fill="none" xmlns="http://www.w3.org/2000/svg">
<path d="M186 111.191L426 48V318H186L186 111.191Z" fill="#BD0017"/>
<path d="M281.781 192.863H265.683C264.207 192.863 263 194.066 263 195.537V214.255H265.683V195.537H281.781V192.863ZM280.44 198.211L288.489 206.233V219.602C288.489 221.073 287.282 222.276 285.806 222.276H271.036C269.56 222.276 268.366 221.073 268.366 219.602L268.38 200.885C268.38 199.414 269.573 198.211 271.049 198.211H280.44ZM279.098 207.57H286.477L279.098 200.216V207.57Z" fill="white"/>
<path d="M312.368 192.863H296.27C294.794 192.863 293.587 194.04 293.587 195.479V213.789H296.27V195.479H312.368V192.863ZM311.027 198.095L319.076 205.942V219.021C319.076 220.46 317.869 221.637 316.393 221.637H301.623C300.147 221.637 298.953 220.46 298.953 219.021L298.966 200.71C298.966 199.272 300.16 198.095 301.636 198.095H311.027ZM309.685 207.25H317.064L309.685 200.057V207.25Z" fill="white"/>
<path d="M281.781 229.587H265.683C264.207 229.587 263 230.79 263 232.261V250.979H265.683V232.261H281.781V229.587ZM280.44 234.935L288.489 242.957V256.326C288.489 257.797 287.282 259 285.806 259H271.036C269.56 259 268.366 257.797 268.366 256.326L268.38 237.609C268.38 236.138 269.573 234.935 271.049 234.935H280.44ZM279.098 244.294H286.477L279.098 236.94V244.294Z" fill="white"/>
<path d="M312.368 229.587H296.27C294.794 229.587 293.587 230.764 293.587 232.203V250.514H296.27V232.203H312.368V229.587ZM311.027 234.819L319.076 242.666V255.745C319.076 257.184 317.869 258.361 316.393 258.361H301.623C300.147 258.361 298.953 257.184 298.953 255.745L298.966 237.435C298.966 235.996 300.16 234.819 301.636 234.819H311.027ZM309.685 243.974H317.064L309.685 236.781V243.974Z" fill="white"/>
<path d="M342.955 192.863H326.856C325.381 192.863 324.173 194.04 324.173 195.479V213.789H326.856V195.479H342.955V192.863ZM341.613 198.095L349.662 205.942V219.021C349.662 220.46 348.455 221.637 346.979 221.637H332.209C330.733 221.637 329.539 220.46 329.539 219.021L329.553 200.71C329.553 199.272 330.747 198.095 332.222 198.095H341.613ZM340.271 207.25H347.65L340.271 200.057V207.25Z" fill="white"/>
<path d="M342.955 229.587H326.856C325.381 229.587 324.173 230.764 324.173 232.203V250.514H326.856V232.203H342.955V229.587ZM341.613 234.819L349.662 242.666V255.745C349.662 257.184 348.455 258.361 346.979 258.361H332.209C330.733 258.361 329.539 257.184 329.539 255.745L329.553 237.435C329.553 235.996 330.747 234.819 332.222 234.819H341.613ZM340.271 243.974H347.65L340.271 236.781V243.974Z" fill="white"/>
<path d="M232.619 284.092L231.331 284.414V282.342H232.703V280.802H231.331V278.156H229.679V280.802H228.069V282.342H229.679V284.82C229.007 284.988 228.405 285.114 227.887 285.226L228.321 286.808L229.679 286.472V289.356C229.679 289.566 229.609 289.636 229.413 289.636C229.231 289.636 228.657 289.636 228.111 289.622C228.307 290.056 228.517 290.714 228.573 291.134C229.567 291.134 230.239 291.092 230.701 290.84C231.177 290.574 231.331 290.182 231.331 289.37V286.024C231.835 285.898 232.339 285.758 232.829 285.618L232.619 284.092ZM238.485 284.848C238.065 285.8 237.449 286.64 236.721 287.326C236.021 286.612 235.461 285.772 235.069 284.848H238.485ZM239.521 283.28L239.227 283.35H237.547V281.67H240.683V280.13H237.547V278.128H235.895V280.13H232.885V281.67H235.895V283.35H233.137V284.848H233.865L233.445 284.974C233.963 286.262 234.621 287.368 235.433 288.306C234.453 288.936 233.319 289.384 232.087 289.678C232.395 290.042 232.787 290.742 232.969 291.19C234.341 290.784 235.573 290.224 236.665 289.468C237.645 290.238 238.793 290.826 240.151 291.232C240.389 290.798 240.865 290.126 241.215 289.79C239.969 289.482 238.891 289.02 237.967 288.376C239.157 287.2 240.053 285.66 240.585 283.728L239.521 283.28ZM259.795 278.898H256.477V280.354H259.795V278.898ZM256.337 280.41C256.169 279.892 255.749 279.108 255.385 278.506L254.279 278.968C254.643 279.584 255.035 280.41 255.203 280.928L256.337 280.41ZM249.197 278.156C248.707 279.038 247.741 280.144 246.845 280.83C247.097 281.11 247.503 281.726 247.699 282.076C248.777 281.222 249.953 279.906 250.695 278.688L249.197 278.156ZM250.919 283.98C250.835 285.702 250.653 287.452 250.149 288.572C250.457 288.754 251.031 289.146 251.269 289.342C251.815 288.068 252.109 286.122 252.249 284.176L250.919 283.98ZM255.987 282.636V281.11H254.181V278.352H252.641V281.11H250.779V281.516L249.519 281.082C248.861 282.524 247.783 283.98 246.677 284.904C246.971 285.254 247.419 286.094 247.573 286.444C247.853 286.178 248.147 285.884 248.427 285.562V291.218H249.967V283.49C250.261 283.028 250.541 282.538 250.779 282.062V282.636H252.641V290.994H254.181V282.636H255.987ZM254.447 284.246C254.713 285.576 254.965 287.298 255.007 288.418L256.295 288.166C256.211 287.032 255.959 285.352 255.665 284.008L254.447 284.246ZM260.005 282.832H256.127V284.316H257.345V289.384C257.345 289.566 257.289 289.608 257.107 289.608C256.939 289.608 256.351 289.608 255.777 289.58C255.987 290.07 256.183 290.742 256.225 291.204C257.149 291.204 257.835 291.176 258.325 290.91C258.815 290.644 258.927 290.196 258.927 289.412V284.316H260.005V282.832ZM268.953 287.438C268.225 288.334 267.007 289.286 265.873 289.874C266.293 290.14 267.021 290.7 267.371 291.022C268.463 290.322 269.807 289.174 270.675 288.068L268.953 287.438ZM279.075 286.71C278.389 285.758 276.933 284.372 275.799 283.434L274.427 284.302C274.749 284.582 275.099 284.904 275.449 285.24C274.161 285.282 272.873 285.31 271.641 285.324C273.153 284.176 274.777 282.79 276.079 281.446L274.483 280.578C273.657 281.53 272.537 282.608 271.389 283.588C271.081 283.322 270.703 283.042 270.311 282.762C271.053 282.09 271.879 281.236 272.579 280.41L272.537 280.382C274.483 280.228 276.373 280.004 277.941 279.668L276.765 278.268C274.273 278.772 270.171 279.066 266.573 279.136C266.741 279.528 266.937 280.2 266.979 280.634C268.029 280.62 269.149 280.592 270.269 280.536C269.891 281.012 269.443 281.488 269.037 281.908C268.785 281.754 268.561 281.614 268.337 281.488L267.189 282.552C268.141 283.14 269.275 283.98 270.045 284.68C269.723 284.932 269.401 285.17 269.093 285.38C268.015 285.394 267.021 285.408 266.167 285.422L266.307 287.088C267.763 287.046 269.597 287.004 271.557 286.934V291.218H273.335V286.878C274.497 286.836 275.673 286.78 276.849 286.738C277.143 287.088 277.409 287.424 277.591 287.718L279.075 286.71ZM274.147 288.306C275.267 289.09 276.709 290.238 277.353 290.994L278.851 289.93C278.123 289.16 276.639 288.068 275.533 287.354L274.147 288.306ZM285.041 286.164C285.041 285.025 285.205 283.929 285.531 282.874C285.867 281.81 286.39 280.853 287.099 280.004H288.807C288.173 280.881 287.687 281.847 287.351 282.902C287.025 283.957 286.861 285.039 286.861 286.15C286.861 287.233 287.025 288.301 287.351 289.356C287.687 290.401 288.168 291.353 288.793 292.212H287.099C286.39 291.391 285.867 290.462 285.531 289.426C285.205 288.381 285.041 287.293 285.041 286.164ZM299.224 290H294.674V288.796L295.892 288.236V281.768L294.674 281.208V280.004H299.224V281.208L298.006 281.768V288.236L299.224 288.796V290ZM309.777 290H307.663V281.768H304.947V280.004H312.493V281.768H309.777V290ZM324.774 282.888C323.794 282.888 322.982 283.7 322.982 284.68C322.982 285.66 323.794 286.472 324.774 286.472C325.754 286.472 326.566 285.66 326.566 284.68C326.566 283.7 325.754 282.888 324.774 282.888ZM345.006 282.846V283.602H343.396V282.846H345.006ZM348.142 283.602H346.49V282.846H348.142V283.602ZM346.49 285.548V284.764H348.142V285.548H346.49ZM343.396 285.548V284.764H345.006V285.548H343.396ZM343.396 286.752H345.006V288.796H346.49V286.752H348.142V287.396C348.142 287.536 348.1 287.592 347.932 287.606C347.792 287.606 347.302 287.606 346.868 287.592C347.05 287.942 347.218 288.488 347.274 288.894C348.114 288.894 348.716 288.894 349.164 288.656C349.612 288.432 349.738 288.082 349.738 287.41V281.642H348.044C347.806 281.502 347.512 281.362 347.204 281.208C348.114 280.648 348.996 279.976 349.696 279.318L348.702 278.52L348.38 278.604H341.954V279.864H346.938C346.588 280.116 346.21 280.382 345.818 280.606C345.244 280.354 344.656 280.13 344.166 279.948L343.088 280.844C343.662 281.068 344.334 281.348 344.964 281.642H341.828V288.852H343.396V286.752ZM341.058 280.592C340.554 279.92 339.476 279.024 338.622 278.436L337.474 279.5C338.328 280.144 339.378 281.11 339.812 281.782L341.058 280.592ZM340.638 283.574H337.264V285.1H339.042V288.152C338.398 288.628 337.684 289.09 337.082 289.426L337.852 291.092C338.636 290.504 339.294 289.958 339.938 289.412C340.778 290.49 341.884 290.896 343.564 290.966C345.272 291.036 348.24 291.008 349.962 290.924C350.032 290.462 350.284 289.692 350.48 289.3C348.562 289.454 345.244 289.496 343.578 289.426C342.15 289.37 341.184 288.978 340.638 288.04V283.574ZM368.122 278.688H361.71V279.99H368.122V278.688ZM359.358 278.17C358.602 280.158 357.314 282.146 355.984 283.406C356.264 283.798 356.698 284.708 356.852 285.1C357.244 284.708 357.636 284.274 358.014 283.784V291.176H359.596V281.376C360.1 280.494 360.534 279.57 360.898 278.674L359.358 278.17ZM366.89 287.97V289.342H362.858V287.97H366.89ZM361.262 291.204H362.858V290.644H366.89V291.162H368.57V286.682H361.262V291.204ZM361.486 285.996H368.318V284.694H361.486V285.996ZM368.374 282.706H361.486V283.994H368.374V282.706ZM360.38 280.676V282.02H369.34V280.676H360.38ZM378.96 286.164C378.96 287.293 378.792 288.381 378.456 289.426C378.13 290.462 377.612 291.391 376.902 292.212H375.208C375.843 291.353 376.324 290.401 376.65 289.356C376.977 288.301 377.14 287.233 377.14 286.15C377.14 285.039 376.972 283.957 376.636 282.902C376.31 281.847 375.829 280.881 375.194 280.004H376.902C377.612 280.853 378.13 281.81 378.456 282.874C378.792 283.929 378.96 285.025 378.96 286.164Z" fill="white"/>
<circle cx="306" cy="80" r="75" fill="#BD0017" stroke="white" stroke-width="10"/>
<path d="M258.32 93L268.328 71.22H255.188V67.296H273.188V70.356L263.18 93H258.32ZM280.736 91.848C280.736 91.344 280.868 90.99 281.132 90.786C281.396 90.57 281.72 90.462 282.104 90.462C282.476 90.462 282.8 90.57 283.076 90.786C283.352 90.99 283.49 91.344 283.49 91.848C283.49 92.34 283.352 92.694 283.076 92.91C282.8 93.126 282.476 93.234 282.104 93.234C281.72 93.234 281.396 93.126 281.132 92.91C280.868 92.694 280.736 92.34 280.736 91.848ZM299.205 93H290.403V91.326L293.679 88.014C294.327 87.354 294.855 86.79 295.263 86.322C295.683 85.854 295.989 85.416 296.181 85.008C296.385 84.588 296.487 84.138 296.487 83.658C296.487 83.07 296.319 82.632 295.983 82.344C295.647 82.044 295.203 81.894 294.651 81.894C294.111 81.894 293.607 82.008 293.139 82.236C292.671 82.452 292.185 82.764 291.681 83.172L290.439 81.678C290.967 81.222 291.567 80.826 292.239 80.49C292.911 80.142 293.757 79.968 294.777 79.968C295.605 79.968 296.319 80.118 296.919 80.418C297.519 80.706 297.975 81.108 298.287 81.624C298.611 82.14 298.773 82.74 298.773 83.424C298.773 84.12 298.635 84.762 298.359 85.35C298.083 85.926 297.681 86.508 297.153 87.096C296.637 87.672 296.019 88.296 295.299 88.968L293.265 90.93V91.038H299.205V93ZM314.47 85.638C314.47 86.37 314.416 87.102 314.308 87.834C314.2 88.554 314.014 89.238 313.75 89.886C313.486 90.522 313.12 91.092 312.652 91.596C312.184 92.088 311.584 92.478 310.852 92.766C310.132 93.042 309.256 93.18 308.224 93.18C307.984 93.18 307.696 93.168 307.36 93.144C307.024 93.12 306.754 93.084 306.55 93.036V91.164C306.766 91.224 307.012 91.272 307.288 91.308C307.564 91.344 307.834 91.362 308.098 91.362C309.19 91.362 310.03 91.17 310.618 90.786C311.218 90.39 311.638 89.856 311.878 89.184C312.13 88.512 312.274 87.756 312.31 86.916H312.202C311.938 87.336 311.584 87.69 311.14 87.978C310.696 88.266 310.072 88.41 309.268 88.41C308.176 88.41 307.294 88.062 306.622 87.366C305.962 86.67 305.632 85.686 305.632 84.414C305.632 83.034 306.016 81.954 306.784 81.174C307.552 80.382 308.59 79.986 309.898 79.986C310.75 79.986 311.518 80.19 312.202 80.598C312.898 81.006 313.45 81.63 313.858 82.47C314.266 83.298 314.47 84.354 314.47 85.638ZM309.934 81.858C309.322 81.858 308.824 82.062 308.44 82.47C308.056 82.878 307.864 83.514 307.864 84.378C307.864 85.074 308.026 85.626 308.35 86.034C308.686 86.442 309.196 86.646 309.88 86.646C310.348 86.646 310.75 86.55 311.086 86.358C311.434 86.154 311.704 85.902 311.896 85.602C312.088 85.29 312.184 84.966 312.184 84.63C312.184 84.198 312.1 83.766 311.932 83.334C311.764 82.902 311.512 82.548 311.176 82.272C310.84 81.996 310.426 81.858 309.934 81.858ZM328.834 62.616C326.998 67.764 323.902 72.876 320.662 76.116C321.382 77.124 322.534 79.5 322.93 80.544C323.758 79.68 324.586 78.708 325.378 77.664V96.06H329.446V71.328C330.778 68.916 331.966 66.396 332.902 63.912L328.834 62.616ZM348.634 85.836V90.66H338.302V85.836H348.634ZM334.126 96.132H338.302V94.62H348.634V95.952H352.99V81.948H334.126V96.132ZM347.158 69.924C346.798 71.508 346.078 73.596 345.502 75.036L347.41 75.396H338.806L340.714 74.892C340.498 73.56 339.886 71.544 339.13 69.924H347.158ZM349.462 75.396C350.074 74.1 350.758 72.3 351.478 70.428L348.634 69.924H354.466V66.108H345.466V62.544H341.074V66.108H332.506V69.924H337.582L335.242 70.464C335.926 72.012 336.466 73.956 336.682 75.396H331.174V79.32H355.186V75.396H349.462Z" fill="white"/>
<path d="M0.837891 317.5V161.169L185.838 111.651V317.5H0.837891Z" stroke="#BD0017"/>
<path d="M66.8619 229.342H66.3619V229.842V249.239H64.5V229.842C64.5 228.558 65.5608 227.5 66.8619 227.5H83.5332V229.342H66.8619ZM70.2381 235.527V235.527C70.2381 234.24 71.2878 233.185 72.5857 233.185H82.3962L90.688 241.42V255.424C90.688 256.708 89.6272 257.766 88.3261 257.766H72.5714C71.2736 257.766 70.224 256.711 70.2238 255.424C70.2238 255.424 70.2238 255.424 70.2238 255.424L70.2381 235.527ZM80.6714 242.633V243.133H81.1714H89.0416H90.2545L89.3939 242.278L81.5237 234.462L80.6714 233.615V234.817V242.633Z" stroke="#BD0017"/>
<path d="M98.3772 230.076H97.8772V230.576V249.973H96.0153V230.576C96.0153 229.292 97.076 228.234 98.3772 228.234H115.049V230.076H98.3772ZM101.753 236.261V236.261C101.753 234.974 102.803 233.918 104.101 233.918H113.911L122.203 242.154V256.157C122.203 257.441 121.142 258.5 119.841 258.5H104.087C102.789 258.5 101.739 257.445 101.739 256.158C101.739 256.158 101.739 256.158 101.739 256.157L101.753 236.261ZM112.187 243.367V243.867H112.687H120.557H121.77L120.909 243.012L113.039 235.195L112.187 234.349V235.55V243.367Z" stroke="#BD0017"/>
<path d="M54.7079 278.268C53.6299 280.074 51.3059 282.286 48.9119 283.602C49.1359 283.826 49.4299 284.19 49.5559 284.428C51.9079 283.056 54.1619 280.984 55.2819 279.29C56.5419 281.054 58.9919 283.112 61.1339 284.358C61.3019 284.064 61.5539 283.7 61.8199 283.434C59.6359 282.356 57.1999 280.312 55.7439 278.268H54.7079ZM55.8279 287.452H60.0699V286.528H55.8279V284.344H59.5379V283.406H51.2219V284.344H54.7639V286.528H50.5919V287.452H54.7639V289.734H49.4579V290.686H61.2879V289.734H55.8279V287.452ZM80.7639 281.082C80.4979 280.438 79.8959 279.486 79.2799 278.8L78.5659 279.178C79.1539 279.878 79.7559 280.844 80.0079 281.488L80.7639 281.082ZM71.1599 281.81H69.6199V279.822H71.1599V281.81ZM69.6199 287.788V285.548H71.1599V287.494L69.6199 287.788ZM71.1599 284.68H69.6199V282.678H71.1599V284.68ZM72.7139 279.822V280.48H77.0819V279.682H75.3039V278.31H74.3799V279.682H72.7279V278.884H68.0939V279.822H68.7379V287.97L67.8559 288.138L68.0379 289.076C68.9339 288.894 70.0399 288.656 71.1599 288.404V291.064H72.0419V279.822H72.7139ZM75.9899 282.692C76.1719 282.188 76.4099 281.404 76.6339 280.732L75.7799 280.55C75.6819 281.124 75.4719 281.978 75.3039 282.51L75.9899 282.692ZM75.9339 285.184V286.388H73.8899V285.184H75.9339ZM73.8899 288.39V287.144H75.9339V288.39H73.8899ZM76.7739 289.174V284.4H73.0499V290.056H73.8899V289.174H76.7739ZM73.1339 280.732C73.3579 281.362 73.5399 282.174 73.5539 282.706L74.3239 282.524C74.2959 281.992 74.0999 281.18 73.8479 280.578L73.1339 280.732ZM79.4759 284.274C79.2799 285.086 79.0139 285.828 78.6919 286.528C78.5939 285.66 78.5239 284.666 78.4679 283.56H80.7499V282.706H78.4259C78.3699 281.348 78.3419 279.85 78.3419 278.31H77.4179C77.4319 279.864 77.4599 281.348 77.5159 282.706H72.3079V283.56H77.5579C77.6419 285.212 77.7679 286.668 77.9639 287.844C77.2779 288.88 76.4379 289.72 75.4299 290.364C75.6259 290.532 75.9619 290.896 76.0739 291.064C76.8719 290.504 77.5859 289.818 78.2019 289.02C78.5239 290.28 78.9999 291.022 79.6579 291.036C80.1059 291.05 80.5959 290.476 80.8479 288.292C80.6939 288.208 80.3159 287.956 80.1619 287.76C80.0779 289.062 79.8959 289.846 79.6859 289.846C79.3639 289.832 79.0979 289.146 78.9019 287.984C79.5179 286.962 80.0079 285.786 80.3579 284.47L79.4759 284.274ZM92.2599 285.954C91.9799 285.632 90.7899 284.4 90.3559 284.036V283.182H92.1059V282.202H90.3559V279.836C91.0139 279.682 91.6299 279.486 92.1339 279.276L91.4059 278.492C90.3839 278.954 88.5499 279.36 86.9819 279.612C87.1079 279.85 87.2479 280.186 87.3039 280.424C87.9479 280.326 88.6619 280.214 89.3479 280.074V282.202H87.0659V283.182H89.2079C88.6479 284.778 87.6819 286.584 86.7999 287.564C86.9679 287.816 87.2199 288.222 87.3179 288.516C88.0319 287.662 88.7739 286.262 89.3479 284.848V291.036H90.3559V285.044C90.8319 285.618 91.4059 286.388 91.6299 286.78L92.2599 285.954ZM93.3379 286.206V285.086H95.2979V286.206H93.3379ZM93.3379 283.308H95.2979V284.4H93.3379V283.308ZM98.3079 283.308V284.4H96.2919V283.308H98.3079ZM98.3079 286.206H96.2919V285.086H98.3079V286.206ZM96.2919 289.916V288.824H99.3159V287.984H96.2919V286.99H99.2459V282.524H96.2919V281.586H99.5259V280.732H96.2919V279.71C97.4959 279.598 98.6159 279.444 99.4979 279.248L98.8679 278.464C97.2999 278.814 94.4019 279.052 92.0779 279.15C92.1759 279.346 92.3019 279.71 92.3159 279.934C93.2539 279.906 94.2899 279.864 95.2979 279.794V280.732H91.8259V281.586H95.2979V282.524H92.4139V286.99H95.2979V287.984H92.2599V288.824H95.2979V289.916H91.4619V290.784H99.7919V289.916H96.2919ZM118.582 285.142H112.842V280.256H117.798V279.234H106.85V280.256H111.778V285.142H106.122V286.164H111.778V291.064H112.842V286.164H118.582V285.142ZM107.83 281.222C108.362 282.244 108.894 283.602 109.09 284.428L110.07 284.092C109.888 283.266 109.314 281.95 108.74 280.942L107.83 281.222ZM115.25 284.47C115.796 283.63 116.468 282.3 116.972 281.18L115.88 280.872C115.53 281.88 114.886 283.308 114.368 284.176L115.25 284.47ZM134.978 286.052C133.074 286.752 131.1 287.48 129.84 287.886L130.26 288.866C131.632 288.334 133.452 287.606 135.146 286.934L134.978 286.052ZM130.484 283.406V284.344H134.796V283.406H130.484ZM131.744 280.606C132.024 279.934 132.276 279.234 132.486 278.52L131.436 278.282C131.016 279.836 130.344 281.348 129.518 282.524V281.53H127.866V278.366H126.872V281.53H125.122V282.524H126.872V286.962C126.116 287.256 125.416 287.522 124.856 287.718L125.234 288.768C126.536 288.222 128.244 287.508 129.84 286.822L129.616 285.856C129.028 286.094 128.44 286.332 127.866 286.57V282.524H129.518C129.308 282.818 129.084 283.084 128.86 283.336C129.112 283.476 129.574 283.812 129.756 283.994C130.316 283.336 130.848 282.51 131.31 281.572H136.434C136.252 287.228 136.028 289.37 135.58 289.86C135.412 290.042 135.244 290.084 134.978 290.084C134.642 290.084 133.788 290.084 132.864 289.986C133.046 290.28 133.172 290.742 133.186 291.036C134.04 291.078 134.894 291.106 135.37 291.05C135.874 291.008 136.196 290.896 136.504 290.476C137.078 289.79 137.26 287.564 137.484 281.152C137.484 280.998 137.498 280.606 137.498 280.606H131.744Z" fill="black"/>
<path d="M65.8238 184H57.6878V183.136L61.3778 179.302C61.9898 178.666 62.5058 178.096 62.9258 177.592C63.3458 177.088 63.6638 176.584 63.8798 176.08C64.0958 175.576 64.2038 175.012 64.2038 174.388C64.2038 173.584 63.9698 172.966 63.5018 172.534C63.0338 172.09 62.4038 171.868 61.6118 171.868C61.0358 171.868 60.4958 171.97 59.9918 172.174C59.4878 172.378 58.9898 172.672 58.4978 173.056L57.9398 172.336C58.4678 171.904 59.0438 171.568 59.6678 171.328C60.2918 171.088 60.9398 170.968 61.6118 170.968C62.7158 170.968 63.5978 171.274 64.2578 171.886C64.9298 172.498 65.2658 173.314 65.2658 174.334C65.2658 175.03 65.1398 175.666 64.8878 176.242C64.6358 176.818 64.2818 177.382 63.8258 177.934C63.3698 178.486 62.8358 179.074 62.2238 179.698L59.0018 183.01V183.046H65.8238V184ZM73.421 183.298C73.421 182.71 73.679 182.416 74.195 182.416C74.735 182.416 75.005 182.71 75.005 183.298C75.005 183.898 74.735 184.198 74.195 184.198C73.679 184.198 73.421 183.898 73.421 183.298ZM82.5096 178.528C82.5096 176.992 82.7016 175.66 83.0856 174.532C83.4696 173.392 84.0756 172.51 84.9036 171.886C85.7436 171.262 86.8236 170.95 88.1436 170.95C88.7916 170.95 89.3496 171.016 89.8176 171.148V172.066C89.3496 171.898 88.7976 171.814 88.1616 171.814C86.6136 171.814 85.4676 172.336 84.7236 173.38C83.9796 174.424 83.5776 175.906 83.5176 177.826H83.5896C83.8416 177.37 84.2436 176.956 84.7956 176.584C85.3596 176.212 86.0916 176.026 86.9916 176.026C88.1436 176.026 89.0556 176.374 89.7276 177.07C90.3996 177.754 90.7356 178.696 90.7356 179.896C90.7356 181.192 90.3816 182.23 89.6736 183.01C88.9776 183.79 88.0116 184.18 86.7756 184.18C85.8516 184.18 85.0716 183.94 84.4356 183.46C83.7996 182.968 83.3196 182.302 82.9956 181.462C82.6716 180.61 82.5096 179.632 82.5096 178.528ZM86.7576 183.28C87.6816 183.28 88.4016 182.992 88.9176 182.416C89.4456 181.84 89.7096 181 89.7096 179.896C89.7096 178.96 89.4696 178.222 88.9896 177.682C88.5096 177.142 87.7896 176.872 86.8296 176.872C86.1696 176.872 85.5936 177.01 85.1016 177.286C84.6216 177.55 84.2496 177.88 83.9856 178.276C83.7216 178.672 83.5896 179.062 83.5896 179.446C83.5896 179.83 83.6436 180.244 83.7516 180.688C83.8596 181.12 84.0336 181.534 84.2736 181.93C84.5256 182.326 84.8556 182.65 85.2636 182.902C85.6716 183.154 86.1696 183.28 86.7576 183.28ZM97.7928 178.528C97.7928 176.992 97.9848 175.66 98.3688 174.532C98.7528 173.392 99.3588 172.51 100.187 171.886C101.027 171.262 102.107 170.95 103.427 170.95C104.075 170.95 104.633 171.016 105.101 171.148V172.066C104.633 171.898 104.081 171.814 103.445 171.814C101.897 171.814 100.751 172.336 100.007 173.38C99.2628 174.424 98.8608 175.906 98.8008 177.826H98.8728C99.1248 177.37 99.5268 176.956 100.079 176.584C100.643 176.212 101.375 176.026 102.275 176.026C103.427 176.026 104.339 176.374 105.011 177.07C105.683 177.754 106.019 178.696 106.019 179.896C106.019 181.192 105.665 182.23 104.957 183.01C104.261 183.79 103.295 184.18 102.059 184.18C101.135 184.18 100.355 183.94 99.7188 183.46C99.0828 182.968 98.6028 182.302 98.2788 181.462C97.9548 180.61 97.7928 179.632 97.7928 178.528ZM102.041 183.28C102.965 183.28 103.685 182.992 104.201 182.416C104.729 181.84 104.993 181 104.993 179.896C104.993 178.96 104.753 178.222 104.273 177.682C103.793 177.142 103.073 176.872 102.113 176.872C101.453 176.872 100.877 177.01 100.385 177.286C99.9048 177.55 99.5328 177.88 99.2688 178.276C99.0048 178.672 98.8728 179.062 98.8728 179.446C98.8728 179.83 98.9268 180.244 99.0348 180.688C99.1428 181.12 99.3168 181.534 99.5568 181.93C99.8088 182.326 100.139 182.65 100.547 182.902C100.955 183.154 101.453 183.28 102.041 183.28ZM118.008 170.986V172.192H128.898V170.986H124.038V168.952H122.688V170.986H118.008ZM126 175.63C126.396 174.856 126.846 173.686 127.26 172.624L125.91 172.336C125.694 173.236 125.226 174.568 124.848 175.36L126 175.63ZM121.644 175.27C121.536 174.496 121.122 173.272 120.654 172.354L119.502 172.642C119.916 173.596 120.312 174.838 120.42 175.612L121.644 175.27ZM116.766 169.006C115.74 171.742 114.084 174.424 112.32 176.152C112.572 176.44 112.932 177.142 113.076 177.448C113.706 176.8 114.318 176.062 114.894 175.234V185.332H116.154V173.272C116.874 172.03 117.504 170.716 118.008 169.384L116.766 169.006ZM126.594 179.878V183.316H120.258V179.878H126.594ZM118.944 185.386H120.258V184.54H126.594V185.278H127.944V178.636H118.944V185.386ZM117.27 175.72V176.962H129.258V175.72H117.27Z" fill="#BD0017"/>
</svg>
