
<svg width="426" height="178" viewBox="0 0 426 178" fill="none" xmlns="http://www.w3.org/2000/svg">
<path d="M1.246 6.806C1.568 5.77 1.792 4.16 1.848 3.068L1.078 2.97C0.98 4.076 0.756 5.602 0.448 6.54L1.246 6.806ZM2.156 13.064H3.122V0.282H2.156V13.064ZM3.234 2.606C3.528 3.264 3.85 4.132 3.962 4.664L4.69 4.3C4.564 3.796 4.228 2.956 3.92 2.326L3.234 2.606ZM6.244 10.11V9.046H11.284V10.11H6.244ZM11.284 7.212V8.262H6.244V7.212H11.284ZM12.278 6.4H5.264V13.064H6.244V10.88H11.284V11.888C11.284 12.07 11.214 12.126 11.018 12.126C10.85 12.14 10.178 12.14 9.478 12.112C9.604 12.378 9.716 12.756 9.772 13.008C10.766 13.022 11.382 13.008 11.774 12.854C12.166 12.7 12.278 12.434 12.278 11.902V6.4ZM9.282 4.804V3.824H12.614V3.068H9.282V2.172H12.964V1.374H9.282V0.282H8.26V1.374H4.69V2.172H8.26V3.068H5.026V3.824H8.26V4.804H4.27V5.602H13.356V4.804H9.282ZM23.984 6.89H21.562L22.052 6.75C21.982 6.274 21.716 5.49 21.408 4.902H24.138C23.984 5.448 23.676 6.232 23.452 6.736L23.984 6.89ZM23.242 2.62H25.286V1.724H23.242V0.309999H22.262V1.724H20.134V2.62H22.262V4.006H19.63V4.902H21.296L20.61 5.084C20.876 5.644 21.114 6.386 21.198 6.89H19.826V7.8H22.262V9.312H19.966V10.194H22.262V13.036H23.242V10.194H25.468V9.312H23.242V7.8H25.65V6.89H24.264C24.502 6.4 24.782 5.728 25.034 5.084L24.362 4.902H25.818V4.006H23.242V2.62ZM27.218 6.512H27.344C27.764 7.968 28.366 9.326 29.15 10.474C28.604 11.216 27.96 11.86 27.218 12.35V6.512ZM30.9 6.512C30.648 7.59 30.242 8.654 29.696 9.606C29.08 8.682 28.576 7.618 28.226 6.512H30.9ZM31.376 5.602L31.194 5.644H27.218V1.878H30.732V3.6C30.732 3.768 30.676 3.81 30.452 3.824C30.242 3.852 29.514 3.852 28.646 3.824C28.786 4.076 28.926 4.44 28.968 4.72C30.032 4.72 30.732 4.706 31.152 4.566C31.6 4.412 31.698 4.132 31.698 3.614V0.926H26.266V13.078H27.218V12.406C27.456 12.602 27.736 12.882 27.876 13.092C28.59 12.602 29.22 11.986 29.752 11.286C30.368 12.014 31.054 12.63 31.824 13.064C31.992 12.798 32.314 12.42 32.538 12.224C31.712 11.818 30.97 11.202 30.326 10.446C31.166 9.102 31.726 7.52 32.02 5.84L31.376 5.602ZM46.428 4.58V5.812H44.076V4.58H46.428ZM49.802 5.812H47.366V4.58H49.802V5.812ZM47.366 7.856V6.582H49.802V7.856H47.366ZM44.076 7.856V6.582H46.428V7.856H44.076ZM44.076 8.654H46.428V10.922H47.366V8.654H49.802V9.928C49.802 10.11 49.746 10.166 49.564 10.166C49.396 10.166 48.794 10.18 48.136 10.152C48.262 10.39 48.388 10.754 48.43 11.006C49.368 11.006 49.956 10.992 50.32 10.852C50.684 10.698 50.796 10.446 50.796 9.942V3.782H49.032C48.724 3.614 48.36 3.418 47.954 3.222C48.99 2.704 50.04 2.004 50.782 1.304L50.138 0.814L49.942 0.87H43.11V1.696H48.948C48.388 2.102 47.702 2.508 47.03 2.802C46.372 2.522 45.686 2.242 45.084 2.032L44.426 2.62C45.266 2.928 46.26 3.376 47.086 3.782H43.096V10.978H44.076V8.654ZM41.962 2.858C41.514 2.172 40.478 1.234 39.596 0.604L38.868 1.248C39.75 1.906 40.758 2.886 41.192 3.572L41.962 2.858ZM41.654 5.77H38.63V6.75H40.646V10.348C39.932 10.922 39.134 11.51 38.462 11.93L38.966 12.938C39.764 12.35 40.506 11.748 41.22 11.132C42.074 12.238 43.334 12.728 45.168 12.798C46.708 12.868 49.676 12.84 51.23 12.77C51.286 12.462 51.44 11.986 51.552 11.748C49.886 11.86 46.694 11.902 45.168 11.832C43.53 11.776 42.326 11.314 41.654 10.264V5.77ZM69.096 0.954H62.684V1.808H69.096V0.954ZM60.906 0.323999C60.094 2.438 58.736 4.51 57.322 5.84C57.504 6.078 57.812 6.624 57.91 6.848C58.442 6.316 58.96 5.7 59.464 5V13.022H60.444V3.502C60.99 2.592 61.48 1.598 61.872 0.618L60.906 0.323999ZM68.438 9.494V11.552H63.37V9.494H68.438ZM62.362 13.064H63.37V12.406H68.438V13.022H69.474V8.654H62.362V13.064ZM62.516 7.576H69.32V6.736H62.516V7.576ZM69.348 4.804H62.516V5.658H69.348V4.804ZM61.368 2.872V3.74H70.412V2.872H61.368ZM85.086 3.656C84.89 4.132 84.61 4.706 84.372 5.112L84.512 5.154H81.222L81.67 5.056C81.558 4.678 81.264 4.09 80.97 3.656H85.086ZM89.104 9.746V8.864H83.49V7.828H87.872V7.03H83.49V6.008H88.558V5.154H85.38C85.66 4.734 85.968 4.188 86.248 3.656H89.048V2.76H86.878C87.27 2.228 87.718 1.458 88.11 0.744L87.046 0.463999C86.794 1.094 86.346 2.004 85.982 2.592L86.5 2.76H84.806V0.282H83.826V2.76H82.16V0.282H81.194V2.76H79.472L80.186 2.494C79.976 1.934 79.472 1.066 78.996 0.436L78.114 0.729999C78.534 1.36 79.024 2.2 79.22 2.76H76.994V3.656H80.41L79.92 3.754C80.2 4.174 80.48 4.734 80.606 5.154H77.554V6.008H82.468V7.03H78.254V7.828H82.468V8.864H76.938V9.746H81.516C80.256 10.726 78.31 11.566 76.574 11.958C76.798 12.182 77.106 12.574 77.246 12.84C79.08 12.308 81.124 11.3 82.468 10.082V13.064H83.49V10.012C84.834 11.3 86.878 12.35 88.754 12.882C88.894 12.588 89.216 12.182 89.454 11.958C87.662 11.58 85.73 10.754 84.456 9.746H89.104Z" fill="black"/>
<rect y="22" width="426" height="67" fill="#BD0017"/>
<path d="M164.476 52.836C166.108 52.836 167.548 53.136 168.796 53.736C170.044 54.312 171.016 55.176 171.712 56.328C172.432 57.48 172.792 58.884 172.792 60.54C172.792 63.276 171.928 65.436 170.2 67.02C168.496 68.58 166.024 69.36 162.784 69.36C161.44 69.36 160.18 69.24 159.004 69C157.828 68.76 156.808 68.412 155.944 67.956V63.924C156.832 64.404 157.9 64.8 159.148 65.112C160.396 65.424 161.572 65.58 162.676 65.58C164.38 65.58 165.712 65.208 166.672 64.464C167.656 63.72 168.148 62.556 168.148 60.972C168.148 59.556 167.692 58.476 166.78 57.732C165.868 56.964 164.452 56.58 162.532 56.58C161.86 56.58 161.128 56.64 160.336 56.76C159.568 56.88 158.932 57 158.428 57.12L156.484 56.04L157.456 43.296H170.992V47.256H161.452L160.912 53.196C161.32 53.124 161.8 53.052 162.352 52.98C162.904 52.884 163.612 52.836 164.476 52.836ZM181.15 58.056C181.15 56.592 181.246 55.14 181.438 53.7C181.654 52.236 182.026 50.868 182.554 49.596C183.082 48.3 183.814 47.16 184.75 46.176C185.686 45.168 186.874 44.388 188.314 43.836C189.778 43.26 191.542 42.972 193.606 42.972C194.11 42.972 194.686 42.996 195.334 43.044C195.982 43.092 196.522 43.164 196.954 43.26V47.004C195.994 46.74 194.962 46.608 193.858 46.608C191.698 46.608 190.018 47.004 188.818 47.796C187.618 48.564 186.778 49.62 186.298 50.964C185.818 52.308 185.53 53.832 185.434 55.536H185.65C186.154 54.696 186.874 53.988 187.81 53.412C188.746 52.812 189.958 52.512 191.446 52.512C193.678 52.512 195.466 53.22 196.81 54.636C198.154 56.028 198.826 57.996 198.826 60.54C198.826 63.3 198.058 65.46 196.522 67.02C194.986 68.58 192.91 69.36 190.294 69.36C188.59 69.36 187.042 68.952 185.65 68.136C184.258 67.32 183.154 66.084 182.338 64.428C181.546 62.748 181.15 60.624 181.15 58.056ZM190.222 65.652C191.446 65.652 192.442 65.244 193.21 64.428C193.978 63.588 194.362 62.304 194.362 60.576C194.362 59.184 194.026 58.092 193.354 57.3C192.682 56.484 191.674 56.076 190.33 56.076C189.394 56.076 188.578 56.28 187.882 56.688C187.186 57.072 186.646 57.576 186.262 58.2C185.902 58.8 185.722 59.424 185.722 60.072C185.722 60.96 185.89 61.836 186.226 62.7C186.562 63.54 187.054 64.248 187.702 64.824C188.374 65.376 189.214 65.652 190.222 65.652ZM224.283 54.276C224.283 55.74 224.175 57.204 223.959 58.668C223.743 60.108 223.371 61.476 222.843 62.772C222.315 64.044 221.583 65.184 220.647 66.192C219.711 67.176 218.511 67.956 217.047 68.532C215.607 69.084 213.855 69.36 211.791 69.36C211.311 69.36 210.735 69.336 210.063 69.288C209.391 69.24 208.851 69.168 208.443 69.072V65.328C208.875 65.448 209.367 65.544 209.919 65.616C210.471 65.688 211.011 65.724 211.539 65.724C213.723 65.724 215.403 65.34 216.579 64.572C217.779 63.78 218.619 62.712 219.099 61.368C219.603 60.024 219.891 58.512 219.963 56.832H219.747C219.219 57.672 218.511 58.38 217.623 58.956C216.735 59.532 215.487 59.82 213.879 59.82C211.695 59.82 209.931 59.124 208.587 57.732C207.267 56.34 206.607 54.372 206.607 51.828C206.607 49.068 207.375 46.908 208.911 45.348C210.447 43.764 212.523 42.972 215.139 42.972C216.843 42.972 218.379 43.38 219.747 44.196C221.139 45.012 222.243 46.26 223.059 47.94C223.875 49.596 224.283 51.708 224.283 54.276ZM215.211 46.716C213.987 46.716 212.991 47.124 212.223 47.94C211.455 48.756 211.071 50.028 211.071 51.756C211.071 53.148 211.395 54.252 212.043 55.068C212.715 55.884 213.735 56.292 215.103 56.292C216.039 56.292 216.843 56.1 217.515 55.716C218.211 55.308 218.751 54.804 219.135 54.204C219.519 53.58 219.711 52.932 219.711 52.26C219.711 51.396 219.543 50.532 219.207 49.668C218.871 48.804 218.367 48.096 217.695 47.544C217.023 46.992 216.195 46.716 215.211 46.716ZM247.725 57.084V54.978H231.903V57.084H236.097C235.971 61.422 235.827 66.21 231.201 68.802C231.759 69.216 232.425 69.954 232.749 70.53C236.097 68.514 237.393 65.4 237.951 62.07H243.945C243.747 65.922 243.459 67.686 242.991 68.136C242.757 68.334 242.523 68.37 242.145 68.37C241.605 68.37 240.381 68.37 239.139 68.262C239.535 68.856 239.841 69.756 239.895 70.368C241.083 70.422 242.325 70.44 243.027 70.35C243.837 70.26 244.413 70.08 244.953 69.45C245.655 68.658 245.961 66.48 246.231 60.954C246.267 60.684 246.285 60 246.285 60H238.203C238.293 59.028 238.329 58.038 238.365 57.084H247.725ZM263.813 61.548V57.012H268.313V61.548H263.813ZM257.441 57.012H261.689V61.548H257.441V57.012ZM270.473 54.888H255.281V70.548H257.441V63.672H268.313V68.028C268.313 68.334 268.187 68.442 267.845 68.46C267.485 68.46 266.315 68.478 265.289 68.406C265.595 68.964 265.955 69.954 266.063 70.548C267.665 70.548 268.745 70.512 269.465 70.152C270.221 69.81 270.473 69.216 270.473 68.046V54.888Z" fill="white"/>
<path d="M3.766 105.338C2.982 107.466 1.68 109.552 0.308 110.896C0.49 111.12 0.784 111.652 0.896 111.876C1.372 111.386 1.848 110.812 2.282 110.196V118.05H3.304V108.6C3.85 107.648 4.326 106.64 4.718 105.632L3.766 105.338ZM7.784 116.944C6.79 116.944 6.608 116.762 6.608 115.964V111.036L8.652 110.224V114.97H9.646V109.832L11.83 108.978C11.816 111.162 11.788 112.632 11.676 113.01C11.592 113.374 11.452 113.43 11.2 113.43C11.018 113.43 10.514 113.43 10.136 113.402C10.262 113.654 10.36 114.074 10.388 114.382C10.808 114.396 11.424 114.382 11.802 114.284C12.236 114.172 12.53 113.906 12.642 113.262C12.768 112.674 12.81 110.658 12.81 108.138L12.852 107.956L12.138 107.662L11.956 107.816L11.816 107.942L9.646 108.782V105.31H8.652V109.146L6.608 109.944V106.668H5.586V110.35L3.822 111.036L4.228 111.946L5.586 111.414V115.964C5.586 117.49 6.076 117.882 7.742 117.882H11.396C12.936 117.882 13.258 117.266 13.44 115.348C13.132 115.278 12.726 115.096 12.474 114.914C12.348 116.566 12.208 116.944 11.354 116.944H7.784ZM32.426 108.082C32.16 107.438 31.558 106.486 30.942 105.8L30.228 106.178C30.816 106.878 31.418 107.844 31.67 108.488L32.426 108.082ZM22.822 108.81H21.282V106.822H22.822V108.81ZM21.282 114.788V112.548H22.822V114.494L21.282 114.788ZM22.822 111.68H21.282V109.678H22.822V111.68ZM24.376 106.822V107.48H28.744V106.682H26.966V105.31H26.042V106.682H24.39V105.884H19.756V106.822H20.4V114.97L19.518 115.138L19.7 116.076C20.596 115.894 21.702 115.656 22.822 115.404V118.064H23.704V106.822H24.376ZM27.652 109.692C27.834 109.188 28.072 108.404 28.296 107.732L27.442 107.55C27.344 108.124 27.134 108.978 26.966 109.51L27.652 109.692ZM27.596 112.184V113.388H25.552V112.184H27.596ZM25.552 115.39V114.144H27.596V115.39H25.552ZM28.436 116.174V111.4H24.712V117.056H25.552V116.174H28.436ZM24.796 107.732C25.02 108.362 25.202 109.174 25.216 109.706L25.986 109.524C25.958 108.992 25.762 108.18 25.51 107.578L24.796 107.732ZM31.138 111.274C30.942 112.086 30.676 112.828 30.354 113.528C30.256 112.66 30.186 111.666 30.13 110.56H32.412V109.706H30.088C30.032 108.348 30.004 106.85 30.004 105.31H29.08C29.094 106.864 29.122 108.348 29.178 109.706H23.97V110.56H29.22C29.304 112.212 29.43 113.668 29.626 114.844C28.94 115.88 28.1 116.72 27.092 117.364C27.288 117.532 27.624 117.896 27.736 118.064C28.534 117.504 29.248 116.818 29.864 116.02C30.186 117.28 30.662 118.022 31.32 118.036C31.768 118.05 32.258 117.476 32.51 115.292C32.356 115.208 31.978 114.956 31.824 114.76C31.74 116.062 31.558 116.846 31.348 116.846C31.026 116.832 30.76 116.146 30.564 114.984C31.18 113.962 31.67 112.786 32.02 111.47L31.138 111.274ZM43.922 112.954C43.642 112.632 42.452 111.4 42.018 111.036V110.182H43.768V109.202H42.018V106.836C42.676 106.682 43.292 106.486 43.796 106.276L43.068 105.492C42.046 105.954 40.212 106.36 38.644 106.612C38.77 106.85 38.91 107.186 38.966 107.424C39.61 107.326 40.324 107.214 41.01 107.074V109.202H38.728V110.182H40.87C40.31 111.778 39.344 113.584 38.462 114.564C38.63 114.816 38.882 115.222 38.98 115.516C39.694 114.662 40.436 113.262 41.01 111.848V118.036H42.018V112.044C42.494 112.618 43.068 113.388 43.292 113.78L43.922 112.954ZM45 113.206V112.086H46.96V113.206H45ZM45 110.308H46.96V111.4H45V110.308ZM49.97 110.308V111.4H47.954V110.308H49.97ZM49.97 113.206H47.954V112.086H49.97V113.206ZM47.954 116.916V115.824H50.978V114.984H47.954V113.99H50.908V109.524H47.954V108.586H51.188V107.732H47.954V106.71C49.158 106.598 50.278 106.444 51.16 106.248L50.53 105.464C48.962 105.814 46.064 106.052 43.74 106.15C43.838 106.346 43.964 106.71 43.978 106.934C44.916 106.906 45.952 106.864 46.96 106.794V107.732H43.488V108.586H46.96V109.524H44.076V113.99H46.96V114.984H43.922V115.824H46.96V116.916H43.124V117.784H51.454V116.916H47.954Z" fill="black"/>
<rect x="0.5" y="127.5" width="314" height="50" stroke="#BD0017"/>
<path d="M123.954 156.156H122.172V159H120.318V156.156H114.36V154.644L120.282 146.094H122.172V154.536H123.954V156.156ZM120.318 151.044C120.318 150.48 120.33 149.952 120.354 149.46C120.378 148.956 120.396 148.536 120.408 148.2H120.336C120.24 148.44 120.12 148.686 119.976 148.938C119.844 149.19 119.706 149.412 119.562 149.604L116.16 154.536H120.318V151.044ZM134.377 151.026C135.649 151.026 136.675 151.356 137.455 152.016C138.235 152.676 138.625 153.618 138.625 154.842C138.625 156.186 138.199 157.248 137.347 158.028C136.495 158.796 135.289 159.18 133.729 159.18C133.057 159.18 132.427 159.12 131.839 159C131.263 158.88 130.771 158.706 130.363 158.478V156.732C130.795 156.984 131.317 157.188 131.929 157.344C132.553 157.5 133.147 157.578 133.711 157.578C134.611 157.578 135.331 157.374 135.871 156.966C136.411 156.546 136.681 155.898 136.681 155.022C136.681 154.242 136.435 153.648 135.943 153.24C135.463 152.82 134.701 152.61 133.657 152.61C133.309 152.61 132.931 152.64 132.523 152.7C132.115 152.76 131.785 152.82 131.533 152.88L130.651 152.358L131.137 146.148H137.743V147.84H132.793L132.505 151.206C132.709 151.17 132.967 151.134 133.279 151.098C133.591 151.05 133.957 151.026 134.377 151.026ZM146.924 159L152.054 147.84H145.304V146.148H154.106V147.516L148.994 159H146.924ZM176.732 146.598V145.302H161.072V146.598H165.914C165.806 151.188 165.554 156.732 160.568 159.378C160.928 159.63 161.324 160.062 161.54 160.422C165.086 158.442 166.418 155.094 166.94 151.566H173.672C173.42 156.318 173.114 158.298 172.574 158.784C172.358 158.982 172.142 159.018 171.728 159.018C171.242 159.018 169.946 159.018 168.596 158.874C168.866 159.252 169.046 159.792 169.064 160.188C170.306 160.278 171.548 160.314 172.232 160.26C172.916 160.206 173.348 160.062 173.762 159.612C174.464 158.856 174.752 156.714 175.076 150.918C175.094 150.738 175.094 150.27 175.094 150.27H167.102C167.228 149.028 167.282 147.786 167.318 146.598H176.732ZM192.514 151.746V146.472H197.986V151.746H192.514ZM185.926 146.472H191.2V151.746H185.926V146.472ZM199.336 145.176H184.594V160.386H185.926V153.078H197.986V158.586C197.986 158.928 197.86 159.036 197.536 159.036C197.194 159.054 196.024 159.072 194.8 159.018C194.998 159.378 195.232 159.99 195.304 160.35C196.906 160.35 197.914 160.332 198.508 160.116C199.12 159.882 199.336 159.45 199.336 158.586V145.176Z" fill="#BD0017"/>
</svg>
