
<svg width="424" height="248" viewBox="0 0 424 248" fill="none" xmlns="http://www.w3.org/2000/svg">
<path fill-rule="evenodd" clip-rule="evenodd" d="M24.6385 63.5727C18.9323 76.5969 15.766 90.9872 15.766 106.117C15.766 164.724 63.2762 212.234 121.883 212.234C180.49 212.234 228 164.724 228 106.117C228 47.5102 180.49 0 121.883 0C121.883 0 121.883 1.25328e-09 121.882 1.25328e-09L121.883 106.117L24.6385 63.5727Z" fill="#BD0017"/>
<path d="M4.32 32.2126L14.328 10.4326H1.188V6.50864H19.188V9.56865L9.18 32.2126H4.32ZM43.7456 12.3766C43.7456 14.1286 43.2296 15.5326 42.1976 16.5886C41.1896 17.6206 39.8816 18.3166 38.2736 18.6766V18.7846C40.3376 19.0486 41.8976 19.6966 42.9536 20.7286C44.0096 21.7366 44.5376 23.0926 44.5376 24.7966C44.5376 26.2846 44.1776 27.6166 43.4576 28.7926C42.7376 29.9686 41.6216 30.8926 40.1096 31.5646C38.6216 32.2366 36.7016 32.5726 34.3496 32.5726C32.9576 32.5726 31.6616 32.4526 30.4616 32.2126C29.2616 31.9966 28.1336 31.6486 27.0776 31.1686V27.1726C28.1576 27.7246 29.3096 28.1446 30.5336 28.4326C31.7576 28.7206 32.9096 28.8646 33.9896 28.8646C36.0776 28.8646 37.5536 28.4926 38.4176 27.7486C39.2816 26.9806 39.7136 25.9246 39.7136 24.5806C39.7136 23.3086 39.2096 22.3606 38.2016 21.7366C37.1936 21.1126 35.5136 20.8006 33.1616 20.8006H31.0016V17.1646H33.1976C35.4776 17.1646 37.0496 16.8046 37.9136 16.0846C38.7776 15.3406 39.2096 14.3686 39.2096 13.1686C39.2096 12.1366 38.8736 11.3326 38.2016 10.7566C37.5296 10.1806 36.5216 9.89265 35.1776 9.89265C33.8816 9.89265 32.7656 10.1086 31.8296 10.5406C30.8936 10.9486 30.0536 11.3926 29.3096 11.8726L27.1496 8.74065C28.1096 8.02065 29.2616 7.40865 30.6056 6.90465C31.9736 6.40065 33.5696 6.14865 35.3936 6.14865C38.0576 6.14865 40.1096 6.71265 41.5496 7.84064C43.0136 8.94464 43.7456 10.4566 43.7456 12.3766ZM52.3371 31.0606C52.3371 30.5566 52.4691 30.2026 52.7331 29.9986C52.9971 29.7826 53.3211 29.6746 53.7051 29.6746C54.0771 29.6746 54.4011 29.7826 54.6771 29.9986C54.9531 30.2026 55.0911 30.5566 55.0911 31.0606C55.0911 31.5526 54.9531 31.9066 54.6771 32.1226C54.4011 32.3386 54.0771 32.4466 53.7051 32.4466C53.3211 32.4466 52.9971 32.3386 52.7331 32.1226C52.4691 31.9066 52.3371 31.5526 52.3371 31.0606ZM66.4685 24.1306C67.2845 24.1306 68.0045 24.2806 68.6285 24.5806C69.2525 24.8686 69.7385 25.3006 70.0865 25.8766C70.4465 26.4526 70.6265 27.1546 70.6265 27.9826C70.6265 29.3506 70.1945 30.4306 69.3305 31.2226C68.4785 32.0026 67.2425 32.3926 65.6225 32.3926C64.9505 32.3926 64.3205 32.3326 63.7325 32.2126C63.1445 32.0926 62.6345 31.9186 62.2025 31.6906V29.6746C62.6465 29.9146 63.1805 30.1126 63.8045 30.2686C64.4285 30.4246 65.0165 30.5026 65.5685 30.5026C66.4205 30.5026 67.0865 30.3166 67.5665 29.9446C68.0585 29.5726 68.3045 28.9906 68.3045 28.1986C68.3045 27.4906 68.0765 26.9506 67.6205 26.5786C67.1645 26.1946 66.4565 26.0026 65.4965 26.0026C65.1605 26.0026 64.7945 26.0326 64.3985 26.0926C64.0145 26.1526 63.6965 26.2126 63.4445 26.2726L62.4725 25.7326L62.9585 19.3606H69.7265V21.3406H64.9565L64.6865 24.3106C64.8905 24.2746 65.1305 24.2386 65.4065 24.2026C65.6825 24.1546 66.0365 24.1306 66.4685 24.1306ZM80.0773 19.1806C81.0493 19.1806 81.7813 19.5346 82.2733 20.2426C82.7773 20.9386 83.0293 21.9226 83.0293 23.1946C83.0293 24.4666 82.7893 25.4626 82.3093 26.1826C81.8413 26.8906 81.0973 27.2446 80.0773 27.2446C79.1413 27.2446 78.4273 26.8906 77.9353 26.1826C77.4553 25.4626 77.2153 24.4666 77.2153 23.1946C77.2153 21.9226 77.4433 20.9386 77.8993 20.2426C78.3553 19.5346 79.0813 19.1806 80.0773 19.1806ZM88.8793 19.3606L81.7513 32.2126H79.9153L87.0433 19.3606H88.8793ZM80.0953 20.7466C79.4233 20.7466 79.0873 21.5686 79.0873 23.2126C79.0873 24.8566 79.4233 25.6786 80.0953 25.6786C80.7913 25.6786 81.1393 24.8566 81.1393 23.2126C81.1393 21.5686 80.7913 20.7466 80.0953 20.7466ZM88.6633 24.3106C89.6113 24.3106 90.3373 24.6646 90.8413 25.3726C91.3453 26.0806 91.5973 27.0646 91.5973 28.3246C91.5973 29.5966 91.3573 30.5926 90.8773 31.3126C90.4093 32.0206 89.6713 32.3746 88.6633 32.3746C87.7153 32.3746 86.9953 32.0206 86.5033 31.3126C86.0233 30.5926 85.7832 29.5966 85.7832 28.3246C85.7832 27.0646 86.0113 26.0806 86.4673 25.3726C86.9353 24.6646 87.6673 24.3106 88.6633 24.3106ZM88.6633 25.8946C87.9913 25.8946 87.6553 26.7106 87.6553 28.3426C87.6553 29.9986 87.9913 30.8266 88.6633 30.8266C89.3713 30.8266 89.7253 29.9986 89.7253 28.3426C89.7253 26.7106 89.3713 25.8946 88.6633 25.8946Z" fill="#BD0017"/>
<path d="M88.2459 230.041C88.5679 229.005 88.7919 227.395 88.8479 226.303L88.0779 226.205C87.9799 227.311 87.7559 228.837 87.4479 229.775L88.2459 230.041ZM89.1559 236.299H90.1219V223.517H89.1559V236.299ZM90.2339 225.841C90.5279 226.499 90.8499 227.367 90.9619 227.899L91.6899 227.535C91.5639 227.031 91.2279 226.191 90.9199 225.561L90.2339 225.841ZM93.2439 233.345V232.281H98.2839V233.345H93.2439ZM98.2839 230.447V231.497H93.2439V230.447H98.2839ZM99.2779 229.635H92.2639V236.299H93.2439V234.115H98.2839V235.123C98.2839 235.305 98.2139 235.361 98.0179 235.361C97.8499 235.375 97.1779 235.375 96.4779 235.347C96.6039 235.613 96.7159 235.991 96.7719 236.243C97.7659 236.257 98.3819 236.243 98.7739 236.089C99.1659 235.935 99.2779 235.669 99.2779 235.137V229.635ZM96.2819 228.039V227.059H99.6139V226.303H96.2819V225.407H99.9639V224.609H96.2819V223.517H95.2599V224.609H91.6899V225.407H95.2599V226.303H92.0259V227.059H95.2599V228.039H91.2699V228.837H100.356V228.039H96.2819ZM110.984 230.125H108.562L109.052 229.985C108.982 229.509 108.716 228.725 108.408 228.137H111.138C110.984 228.683 110.676 229.467 110.452 229.971L110.984 230.125ZM110.242 225.855H112.286V224.959H110.242V223.545H109.262V224.959H107.134V225.855H109.262V227.241H106.63V228.137H108.296L107.61 228.319C107.876 228.879 108.114 229.621 108.198 230.125H106.826V231.035H109.262V232.547H106.966V233.429H109.262V236.271H110.242V233.429H112.468V232.547H110.242V231.035H112.65V230.125H111.264C111.502 229.635 111.782 228.963 112.034 228.319L111.362 228.137H112.818V227.241H110.242V225.855ZM114.218 229.747H114.344C114.764 231.203 115.366 232.561 116.15 233.709C115.604 234.451 114.96 235.095 114.218 235.585V229.747ZM117.9 229.747C117.648 230.825 117.242 231.889 116.696 232.841C116.08 231.917 115.576 230.853 115.226 229.747H117.9ZM118.376 228.837L118.194 228.879H114.218V225.113H117.732V226.835C117.732 227.003 117.676 227.045 117.452 227.059C117.242 227.087 116.514 227.087 115.646 227.059C115.786 227.311 115.926 227.675 115.968 227.955C117.032 227.955 117.732 227.941 118.152 227.801C118.6 227.647 118.698 227.367 118.698 226.849V224.161H113.266V236.313H114.218V235.641C114.456 235.837 114.736 236.117 114.876 236.327C115.59 235.837 116.22 235.221 116.752 234.521C117.368 235.249 118.054 235.865 118.824 236.299C118.992 236.033 119.314 235.655 119.538 235.459C118.712 235.053 117.97 234.437 117.326 233.681C118.166 232.337 118.726 230.755 119.02 229.075L118.376 228.837ZM133.428 227.815V229.047H131.076V227.815H133.428ZM136.802 229.047H134.366V227.815H136.802V229.047ZM134.366 231.091V229.817H136.802V231.091H134.366ZM131.076 231.091V229.817H133.428V231.091H131.076ZM131.076 231.889H133.428V234.157H134.366V231.889H136.802V233.163C136.802 233.345 136.746 233.401 136.564 233.401C136.396 233.401 135.794 233.415 135.136 233.387C135.262 233.625 135.388 233.989 135.43 234.241C136.368 234.241 136.956 234.227 137.32 234.087C137.684 233.933 137.796 233.681 137.796 233.177V227.017H136.032C135.724 226.849 135.36 226.653 134.954 226.457C135.99 225.939 137.04 225.239 137.782 224.539L137.138 224.049L136.942 224.105H130.11V224.931H135.948C135.388 225.337 134.702 225.743 134.03 226.037C133.372 225.757 132.686 225.477 132.084 225.267L131.426 225.855C132.266 226.163 133.26 226.611 134.086 227.017H130.096V234.213H131.076V231.889ZM128.962 226.093C128.514 225.407 127.478 224.469 126.596 223.839L125.868 224.483C126.75 225.141 127.758 226.121 128.192 226.807L128.962 226.093ZM128.654 229.005H125.63V229.985H127.646V233.583C126.932 234.157 126.134 234.745 125.462 235.165L125.966 236.173C126.764 235.585 127.506 234.983 128.22 234.367C129.074 235.473 130.334 235.963 132.168 236.033C133.708 236.103 136.676 236.075 138.23 236.005C138.286 235.697 138.44 235.221 138.552 234.983C136.886 235.095 133.694 235.137 132.168 235.067C130.53 235.011 129.326 234.549 128.654 233.499V229.005ZM156.096 224.189H149.684V225.043H156.096V224.189ZM147.906 223.559C147.094 225.673 145.736 227.745 144.322 229.075C144.504 229.313 144.812 229.859 144.91 230.083C145.442 229.551 145.96 228.935 146.464 228.235V236.257H147.444V226.737C147.99 225.827 148.48 224.833 148.872 223.853L147.906 223.559ZM155.438 232.729V234.787H150.37V232.729H155.438ZM149.362 236.299H150.37V235.641H155.438V236.257H156.474V231.889H149.362V236.299ZM149.516 230.811H156.32V229.971H149.516V230.811ZM156.348 228.039H149.516V228.893H156.348V228.039ZM148.368 226.107V226.975H157.412V226.107H148.368ZM172.086 226.891C171.89 227.367 171.61 227.941 171.372 228.347L171.512 228.389H168.222L168.67 228.291C168.558 227.913 168.264 227.325 167.97 226.891H172.086ZM176.104 232.981V232.099H170.49V231.063H174.872V230.265H170.49V229.243H175.558V228.389H172.38C172.66 227.969 172.968 227.423 173.248 226.891H176.048V225.995H173.878C174.27 225.463 174.718 224.693 175.11 223.979L174.046 223.699C173.794 224.329 173.346 225.239 172.982 225.827L173.5 225.995H171.806V223.517H170.826V225.995H169.16V223.517H168.194V225.995H166.472L167.186 225.729C166.976 225.169 166.472 224.301 165.996 223.671L165.114 223.965C165.534 224.595 166.024 225.435 166.22 225.995H163.994V226.891H167.41L166.92 226.989C167.2 227.409 167.48 227.969 167.606 228.389H164.554V229.243H169.468V230.265H165.254V231.063H169.468V232.099H163.938V232.981H168.516C167.256 233.961 165.31 234.801 163.574 235.193C163.798 235.417 164.106 235.809 164.246 236.075C166.08 235.543 168.124 234.535 169.468 233.317V236.299H170.49V233.247C171.834 234.535 173.878 235.585 175.754 236.117C175.894 235.823 176.216 235.417 176.454 235.193C174.662 234.815 172.73 233.989 171.456 232.981H176.104Z" fill="black"/>
<path d="M364.008 119.031H361.866V122.235H360.876V119.031H354.414V118.185L360.804 109.311H361.866V118.095H364.008V119.031ZM360.876 113.325C360.876 112.857 360.876 112.461 360.876 112.137C360.876 111.813 360.882 111.525 360.894 111.273C360.906 111.009 360.918 110.733 360.93 110.445H360.876C360.72 110.721 360.57 110.979 360.426 111.219C360.282 111.459 360.108 111.717 359.904 111.993L355.512 118.095H360.876V113.325ZM378.553 115.773C378.553 117.909 378.223 119.553 377.563 120.705C376.903 121.845 375.853 122.415 374.413 122.415C373.057 122.415 372.031 121.851 371.335 120.723C370.639 119.595 370.291 117.945 370.291 115.773C370.291 114.453 370.423 113.301 370.687 112.317C370.951 111.333 371.389 110.565 372.001 110.013C372.613 109.461 373.423 109.185 374.431 109.185C375.415 109.185 376.207 109.455 376.807 109.995C377.419 110.535 377.863 111.297 378.139 112.281C378.415 113.265 378.553 114.429 378.553 115.773ZM371.317 115.773C371.317 117.717 371.563 119.163 372.055 120.111C372.559 121.047 373.345 121.515 374.413 121.515C375.517 121.515 376.309 121.041 376.789 120.093C377.269 119.145 377.509 117.705 377.509 115.773C377.509 114.573 377.413 113.553 377.221 112.713C377.041 111.861 376.723 111.213 376.267 110.769C375.823 110.313 375.211 110.085 374.431 110.085C373.651 110.085 373.033 110.313 372.577 110.769C372.133 111.225 371.809 111.879 371.605 112.731C371.413 113.583 371.317 114.597 371.317 115.773ZM385.988 121.533C385.988 120.945 386.246 120.651 386.762 120.651C387.302 120.651 387.572 120.945 387.572 121.533C387.572 122.133 387.302 122.433 386.762 122.433C386.246 122.433 385.988 122.133 385.988 121.533ZM396.841 122.235L402.151 110.319H394.879V109.383H403.267V110.139L397.975 122.235H396.841ZM412.772 109.203C413.624 109.203 414.266 109.551 414.698 110.247C415.13 110.943 415.346 111.933 415.346 113.217C415.346 114.525 415.124 115.527 414.68 116.223C414.248 116.919 413.606 117.267 412.754 117.267C411.926 117.267 411.296 116.919 410.864 116.223C410.432 115.515 410.216 114.513 410.216 113.217C410.216 111.921 410.432 110.931 410.864 110.247C411.296 109.551 411.932 109.203 412.772 109.203ZM420.602 109.383L413.474 122.235H412.52L419.648 109.383H420.602ZM412.772 109.977C411.668 109.977 411.116 111.057 411.116 113.217C411.116 115.389 411.662 116.475 412.754 116.475C413.882 116.475 414.446 115.389 414.446 113.217C414.446 112.161 414.308 111.357 414.032 110.805C413.768 110.253 413.348 109.977 412.772 109.977ZM420.314 114.351C421.166 114.351 421.808 114.699 422.24 115.395C422.672 116.091 422.888 117.081 422.888 118.365C422.888 119.673 422.666 120.675 422.222 121.371C421.79 122.067 421.148 122.415 420.296 122.415C419.468 122.415 418.838 122.067 418.406 121.371C417.974 120.663 417.758 119.661 417.758 118.365C417.758 117.069 417.974 116.079 418.406 115.395C418.838 114.699 419.474 114.351 420.314 114.351ZM420.314 115.143C419.21 115.143 418.658 116.217 418.658 118.365C418.658 120.537 419.204 121.623 420.296 121.623C421.424 121.623 421.988 120.537 421.988 118.365C421.988 117.309 421.85 116.511 421.574 115.971C421.31 115.419 420.89 115.143 420.314 115.143Z" fill="#BD0017"/>
<mask id="path-5-inside-1" fill="white">
<path fill-rule="evenodd" clip-rule="evenodd" d="M331.5 37.2354C283.175 37.2354 244 76.4104 244 124.735C244 173.06 283.175 212.235 331.5 212.235C355.351 212.235 376.973 202.693 392.756 187.217L331.5 124.735V37.2354Z"/>
</mask>
<path d="M331.5 37.2354H332.5V36.2354H331.5V37.2354ZM392.756 187.217L393.456 187.931L394.17 187.231L393.47 186.517L392.756 187.217ZM331.5 124.735H330.5V125.144L330.786 125.435L331.5 124.735ZM245 124.735C245 76.9627 283.727 38.2354 331.5 38.2354V36.2354C282.623 36.2354 243 75.8582 243 124.735H245ZM331.5 211.235C283.727 211.235 245 172.508 245 124.735H243C243 173.613 282.623 213.235 331.5 213.235V211.235ZM392.056 186.503C376.452 201.803 355.079 211.235 331.5 211.235V213.235C355.623 213.235 377.494 203.582 393.456 187.931L392.056 186.503ZM393.47 186.517L332.214 124.035L330.786 125.435L392.042 187.917L393.47 186.517ZM332.5 124.735V37.2354H330.5V124.735H332.5Z" fill="#BD0017" mask="url(#path-5-inside-1)"/>
<path d="M295.37 223.503C294.292 225.309 291.968 227.521 289.574 228.837C289.798 229.061 290.092 229.425 290.218 229.663C292.57 228.291 294.824 226.219 295.944 224.525C297.204 226.289 299.654 228.347 301.796 229.593C301.964 229.299 302.216 228.935 302.482 228.669C300.298 227.591 297.862 225.547 296.406 223.503H295.37ZM296.49 232.687H300.732V231.763H296.49V229.579H300.2V228.641H291.884V229.579H295.426V231.763H291.254V232.687H295.426V234.969H290.12V235.921H301.95V234.969H296.49V232.687ZM321.426 226.317C321.16 225.673 320.558 224.721 319.942 224.035L319.228 224.413C319.816 225.113 320.418 226.079 320.67 226.723L321.426 226.317ZM311.822 227.045H310.282V225.057H311.822V227.045ZM310.282 233.023V230.783H311.822V232.729L310.282 233.023ZM311.822 229.915H310.282V227.913H311.822V229.915ZM313.376 225.057V225.715H317.744V224.917H315.966V223.545H315.042V224.917H313.39V224.119H308.756V225.057H309.4V233.205L308.518 233.373L308.7 234.311C309.596 234.129 310.702 233.891 311.822 233.639V236.299H312.704V225.057H313.376ZM316.652 227.927C316.834 227.423 317.072 226.639 317.296 225.967L316.442 225.785C316.344 226.359 316.134 227.213 315.966 227.745L316.652 227.927ZM316.596 230.419V231.623H314.552V230.419H316.596ZM314.552 233.625V232.379H316.596V233.625H314.552ZM317.436 234.409V229.635H313.712V235.291H314.552V234.409H317.436ZM313.796 225.967C314.02 226.597 314.202 227.409 314.216 227.941L314.986 227.759C314.958 227.227 314.762 226.415 314.51 225.813L313.796 225.967ZM320.138 229.509C319.942 230.321 319.676 231.063 319.354 231.763C319.256 230.895 319.186 229.901 319.13 228.795H321.412V227.941H319.088C319.032 226.583 319.004 225.085 319.004 223.545H318.08C318.094 225.099 318.122 226.583 318.178 227.941H312.97V228.795H318.22C318.304 230.447 318.43 231.903 318.626 233.079C317.94 234.115 317.1 234.955 316.092 235.599C316.288 235.767 316.624 236.131 316.736 236.299C317.534 235.739 318.248 235.053 318.864 234.255C319.186 235.515 319.662 236.257 320.32 236.271C320.768 236.285 321.258 235.711 321.51 233.527C321.356 233.443 320.978 233.191 320.824 232.995C320.74 234.297 320.558 235.081 320.348 235.081C320.026 235.067 319.76 234.381 319.564 233.219C320.18 232.197 320.67 231.021 321.02 229.705L320.138 229.509ZM332.922 231.189C332.642 230.867 331.452 229.635 331.018 229.271V228.417H332.768V227.437H331.018V225.071C331.676 224.917 332.292 224.721 332.796 224.511L332.068 223.727C331.046 224.189 329.212 224.595 327.644 224.847C327.77 225.085 327.91 225.421 327.966 225.659C328.61 225.561 329.324 225.449 330.01 225.309V227.437H327.728V228.417H329.87C329.31 230.013 328.344 231.819 327.462 232.799C327.63 233.051 327.882 233.457 327.98 233.751C328.694 232.897 329.436 231.497 330.01 230.083V236.271H331.018V230.279C331.494 230.853 332.068 231.623 332.292 232.015L332.922 231.189ZM334 231.441V230.321H335.96V231.441H334ZM334 228.543H335.96V229.635H334V228.543ZM338.97 228.543V229.635H336.954V228.543H338.97ZM338.97 231.441H336.954V230.321H338.97V231.441ZM336.954 235.151V234.059H339.978V233.219H336.954V232.225H339.908V227.759H336.954V226.821H340.188V225.967H336.954V224.945C338.158 224.833 339.278 224.679 340.16 224.483L339.53 223.699C337.962 224.049 335.064 224.287 332.74 224.385C332.838 224.581 332.964 224.945 332.978 225.169C333.916 225.141 334.952 225.099 335.96 225.029V225.967H332.488V226.821H335.96V227.759H333.076V232.225H335.96V233.219H332.922V234.059H335.96V235.151H332.124V236.019H340.454V235.151H336.954ZM359.244 230.377H353.504V225.491H358.46V224.469H347.512V225.491H352.44V230.377H346.784V231.399H352.44V236.299H353.504V231.399H359.244V230.377ZM348.492 226.457C349.024 227.479 349.556 228.837 349.752 229.663L350.732 229.327C350.55 228.501 349.976 227.185 349.402 226.177L348.492 226.457ZM355.912 229.705C356.458 228.865 357.13 227.535 357.634 226.415L356.542 226.107C356.192 227.115 355.548 228.543 355.03 229.411L355.912 229.705ZM375.64 231.287C373.736 231.987 371.762 232.715 370.502 233.121L370.922 234.101C372.294 233.569 374.114 232.841 375.808 232.169L375.64 231.287ZM371.146 228.641V229.579H375.458V228.641H371.146ZM372.406 225.841C372.686 225.169 372.938 224.469 373.148 223.755L372.098 223.517C371.678 225.071 371.006 226.583 370.18 227.759V226.765H368.528V223.601H367.534V226.765H365.784V227.759H367.534V232.197C366.778 232.491 366.078 232.757 365.518 232.953L365.896 234.003C367.198 233.457 368.906 232.743 370.502 232.057L370.278 231.091C369.69 231.329 369.102 231.567 368.528 231.805V227.759H370.18C369.97 228.053 369.746 228.319 369.522 228.571C369.774 228.711 370.236 229.047 370.418 229.229C370.978 228.571 371.51 227.745 371.972 226.807H377.096C376.914 232.463 376.69 234.605 376.242 235.095C376.074 235.277 375.906 235.319 375.64 235.319C375.304 235.319 374.45 235.319 373.526 235.221C373.708 235.515 373.834 235.977 373.848 236.271C374.702 236.313 375.556 236.341 376.032 236.285C376.536 236.243 376.858 236.131 377.166 235.711C377.74 235.025 377.922 232.799 378.146 226.387C378.146 226.233 378.16 225.841 378.16 225.841H372.406Z" fill="black"/>
</svg>
