
<svg width="98px" height="37px" viewBox="0 0 98 37" version="1.1" xmlns="http://www.w3.org/2000/svg" xmlns:xlink="http://www.w3.org/1999/xlink">
    <title>logo/white</title>
    <desc>Created with Sketch.</desc>
    <g id="logo/white" stroke="none" stroke-width="1" fill="none" fill-rule="evenodd">
        <path d="M62.121183,13.942558 C62.1887411,13.956433 62.2434152,13.9542857 62.2901607,13.8845804 C62.9222991,12.9552857 64.1054732,12.7382411 65.0676384,13.0487768 C65.7503214,13.2696205 66.1226339,13.8289152 66.3155625,14.4904554 C66.5572187,15.3184955 66.5763795,16.1744509 66.57225,17.0307366 C66.5663036,18.2938571 66.5712589,19.556317 66.5593661,20.8196027 C66.5535848,21.3945893 66.4557991,21.9586741 66.1895312,22.4765089 C65.9452321,22.9479286 65.5542545,23.2695313 65.0331161,23.3730982 C64.1013437,23.5571071 63.1753527,23.6104598 62.3762187,22.952058 C62.2330089,22.8334598 62.129442,22.6662991 61.9921786,22.5031027 C61.7392902,22.7079241 61.8775446,23.0731339 61.6583527,23.3033929 L59.0909821,23.3033929 L59.0909821,9.48323214 L62.1215134,9.48323214 L62.1215134,13.944375 C62.1244866,13.9542857 62.1259732,13.9641964 62.116558,13.9273616 C62.1284509,13.9633705 62.1243214,13.9532946 62.121183,13.942558 M62.1748661,18.2234911 C62.1748661,18.9529196 62.1642946,19.6810268 62.1808125,20.4104554 C62.1867589,20.6780446 62.2634018,20.9467902 62.5470134,21.0771161 C63.054442,21.3100179 63.4465759,20.9362188 63.4883661,20.4752054 C63.6067991,19.1773973 63.5342857,17.8757902 63.5422143,16.5761652 C63.5430402,16.3543304 63.5113259,16.1316696 63.4814286,15.9108259 C63.4186607,15.4617054 63.0336295,15.2278125 62.6117634,15.3616071 C62.2733125,15.4686429 62.1907232,15.7486205 62.1827946,16.0371875 C62.1621473,16.7646339 62.1748661,17.4940625 62.1748661,18.2234911" id="Fill-1" fill="#FFFFFF" fill-rule="nonzero"></path>
        <path d="M49.9211929,13.9406254 C49.9887509,13.9543353 50.0435902,13.9523531 50.0900054,13.8828129 C50.7209875,12.9543442 51.9051527,12.7354826 52.8673179,13.0480004 C53.5559473,13.2716522 53.9261125,13.8368933 54.1201973,14.5068576 C54.3810143,15.407246 54.3729205,16.3367058 54.3729205,17.2631924 L54.3729205,23.0427906 L54.3729482,23.2943576 L51.3962375,23.2943576 C51.3255411,23.1838531 51.3493268,23.0827638 51.3485009,22.9871254 C51.3475098,20.9617058 51.3506482,18.9366165 51.344867,16.9118576 C51.3435455,16.5844737 51.3138134,16.2562638 51.2809429,15.9297058 C51.2450991,15.5739112 50.9606616,15.3038442 50.6380679,15.2992192 C50.3105187,15.2931076 50.0320277,15.5428576 49.9892464,15.9158308 C49.957367,16.1953129 49.9514205,16.4800808 49.9504295,16.7627013 C49.9469607,18.8404826 49.9484473,20.9182638 49.9484473,22.9960451 L49.9484473,23.2925406 L46.889175,23.2925406 L46.889175,9.48344687 L49.9192107,9.48344687 L49.9192107,13.9426076 C49.9225143,13.9523531 49.9243312,13.9625942 49.9145857,13.925429 C49.9271393,13.9612728 49.9240009,13.9513621 49.9211929,13.9406254" id="Fill-3" fill="#FFFFFF"></path>
        <path d="M37.3914897,19.9241531 C37.4592129,20.2127201 37.4332799,20.4953406 37.3914897,20.7700326 C37.3089004,21.318921 37.2580254,21.8821799 36.9575656,22.3701174 C36.6225835,22.914546 36.1166415,23.2039388 35.4942487,23.3185728 C34.4582487,23.5075371 33.4164674,23.5025817 32.3730344,23.4219746 C31.8626326,23.3821665 31.3575165,23.2926397 30.9131862,23.0169567 C30.3570299,22.6707424 30.1115746,22.1154121 29.9739808,21.5073897 C29.597704,19.846354 29.727204,18.1593853 29.7767576,16.483979 C29.7977353,15.7913853 29.9231058,15.0928451 30.1958156,14.435104 C30.5012308,13.6995638 31.0654808,13.3105683 31.8198513,13.1344879 C32.8565121,12.8936576 33.8963112,12.8457558 34.9465165,13.0241487 C35.9904451,13.2012201 36.7725656,13.713604 37.201204,14.7177246 C37.3754674,15.126046 37.4501281,15.5446085 37.452771,15.979854 C37.4577263,16.8534835 37.4559094,17.7282692 37.4559094,18.6028897 C37.4559094,18.6607022 37.4458335,18.7181844 37.4360879,18.8179522 L32.8515567,18.8179522 C32.8467665,19.5293763 32.8107576,20.1991754 32.9410835,20.8588987 C32.9980701,21.1451531 33.4866683,21.3390728 33.8337085,21.2399656 C34.1939629,21.1365638 34.3047978,20.9832781 34.3411371,20.5235862 C34.3569942,20.3280147 34.3609585,20.1324433 34.3720254,19.9234924 L37.3911594,19.9234924 L37.3914897,19.9241531 Z M32.8299183,16.9228585 C33.3573335,16.943671 33.8528692,16.9567201 34.3414674,16.9169121 C34.3773112,16.7398406 34.3644272,15.8531621 34.3312263,15.7268004 C34.2448379,15.3883496 33.9810478,15.1714701 33.6459004,15.1615594 C33.3244629,15.1521442 33.0149183,15.3425951 32.9334853,15.6123317 C32.8079496,16.0262692 32.8449496,16.4530906 32.8299183,16.9228585 Z" id="Fill-5" fill="#FFFFFF" fill-rule="nonzero"></path>
        <path d="M75.350467,18.6523938 C75.323708,19.4246036 75.3610384,20.2645366 75.1910696,21.0863 C75.0351411,21.8405054 74.7759759,22.5499473 74.095275,23.0126125 C73.6795205,23.2955634 73.1927393,23.3609741 72.7155384,23.4156482 C71.8835339,23.5122777 71.0464089,23.5013759 70.2127527,23.4187866 C69.352833,23.33405 68.5797973,23.0793446 68.1468643,22.2427152 C67.8355027,21.6404741 67.6632214,20.9936348 67.632333,20.3221839 C67.5827795,19.211358 67.5439625,18.0990455 67.6286991,16.9882196 C67.7074893,15.9513937 67.867217,14.9243134 68.4347705,14.0227687 C68.819967,13.4107821 69.4436812,13.1491393 70.1253732,13.0265768 C71.0059402,12.8683357 71.8908018,12.8645366 72.7730205,13.0217866 C73.7781321,13.2000143 74.4857571,13.6975321 74.8541054,14.7260991 C75.3047125,15.9824473 75.3541009,17.2810812 75.350467,18.6523938 M70.6845027,18.5161214 C70.7253018,19.0593938 70.6456857,19.9163402 70.7322393,20.7680009 C70.7497482,20.940117 70.7984759,21.1132241 70.9740607,21.1928402 C71.517333,21.439617 72.2244625,21.4069116 72.2328866,20.4743134 C72.2454402,18.9498804 72.2781455,17.4252821 72.2408152,15.9008491 C72.2358598,15.7047821 72.1687973,15.5267196 72.0546589,15.3737643 C71.8174625,15.0551348 71.4705875,15.080242 71.1560875,15.1677866 C70.8366321,15.2563223 70.716217,15.5548 70.7046545,15.8623625 C70.6712884,16.6421705 70.6332973,17.4241259 70.6845027,18.5161214" id="Fill-7" fill="#FFFFFF" fill-rule="nonzero"></path>
        <path d="M76.2707263,18.5986777 C76.2243112,17.6969679 76.2279451,16.7934411 76.4060076,15.9077536 C76.5493826,15.1913741 76.7165433,14.4720214 77.1882933,13.876883 C77.5710121,13.3942313 78.104704,13.1573652 78.6820031,13.0458696 C79.6112978,12.8669813 80.551329,12.8588875 81.4840924,13.03695 C82.4622799,13.2229411 83.1466147,13.7554768 83.4921683,14.7227625 C84.0073603,16.1665884 84.0073603,17.6593071 83.9758112,19.1581375 C83.9629272,19.8011777 83.9698647,20.4486777 83.8316103,21.0808161 C83.6674228,21.8332045 83.4196549,22.5444634 82.740771,23.0094411 C82.3139496,23.3019723 81.8152754,23.3647402 81.3248603,23.4213964 C80.5199451,23.5130705 79.7099094,23.5008473 78.9030121,23.4261866 C78.0311996,23.3457446 77.2408201,23.1039232 76.7950031,22.2529232 C76.4808335,21.6516732 76.3143335,21.0059902 76.2774987,20.3343741 C76.2461147,19.7569098 76.2707263,19.1768027 76.2707263,18.5986777 M79.3268603,18.5180705 C79.3674942,19.0613429 79.2883737,19.9184545 79.3744317,20.7691241 C79.392271,20.9415705 79.4411638,21.1145125 79.6152621,21.1939634 C80.1585344,21.4407402 80.8650031,21.4078696 80.8730969,20.4764277 C80.8859808,18.9521598 80.9190165,17.4283875 80.8810254,15.9039545 C80.8760701,15.7075571 80.8095031,15.5293295 80.6960254,15.3763741 C80.4589942,15.0579098 80.1132754,15.0828518 79.7977844,15.1703964 C79.4781638,15.2589321 79.3587397,15.557575 79.3458558,15.8649723 C79.3141415,16.6452759 79.2759853,17.4273964 79.3268603,18.5180705" id="Fill-9" fill="#FFFFFF" fill-rule="nonzero"></path>
        <path d="M91.7557219,16.0960076 L89.1026237,16.0960076 C89.0866013,15.8867263 89.0758647,15.7050299 89.0588513,15.5234987 C89.0208603,15.1348335 88.7901058,14.9295165 88.3910344,14.9278647 C88.0434987,14.9257174 87.8061371,15.1513513 87.7618692,15.5269674 C87.6903469,16.1518379 87.9044183,16.4146371 88.5494406,16.6937888 C89.3275969,17.0310835 90.1523335,17.2534138 90.903896,17.6549629 C91.560646,18.0062978 91.8900121,18.5784763 91.9534406,19.3019585 C92.0348737,20.2294362 92.0360299,21.1552621 91.6518246,22.0300478 C91.3436013,22.7325522 90.7781951,23.1375701 90.0499228,23.3212487 C89.0192085,23.5819004 87.9699942,23.5254094 86.9344897,23.4018558 C86.166079,23.3103469 85.4615924,23.0148424 85.0783781,22.2545254 C84.9013067,21.9031906 84.8494406,21.5171683 84.8236728,21.1319719 C84.801704,20.8136728 84.8187174,20.4920701 84.8187174,20.1511415 L87.5702621,20.1511415 C87.5882665,20.4060121 87.5993335,20.6349496 87.6221281,20.8625656 C87.6569808,21.217204 87.9047487,21.4050121 88.3176951,21.4010478 C88.6549897,21.3980746 88.899454,21.1835076 88.9356281,20.8625656 C89.0218513,20.1004317 88.8565076,19.9013915 87.9951013,19.5292442 C87.2597263,19.211771 86.4726504,19.0186772 85.7780746,18.5997844 C85.2306728,18.2694272 84.9759674,17.7588603 84.917329,17.1548022 C84.8575344,16.533896 84.8532397,15.9044004 84.919146,15.2829987 C85.0177576,14.3368558 85.3907308,13.5519272 86.3561996,13.1944808 C86.7831862,13.0362397 87.2336281,12.9744629 87.6847308,12.9386192 C88.5482844,12.8699049 89.4002754,12.9647174 90.2459897,13.1467442 C90.8977844,13.2869808 91.5277754,13.9298558 91.6571103,14.5856147 C91.754896,15.0799942 91.7458112,15.5755299 91.7557219,16.0960076" id="Fill-11" fill="#FFFFFF"></path>
        <path d="M42.993042,19.1976152 L45.7852205,19.1976152 C45.8479884,19.2574098 45.8270107,19.3340527 45.829158,19.4035929 C45.8583946,20.2146196 45.7723366,21.0137536 45.5914661,21.8047937 C45.4185241,22.5611464 44.6919036,23.199892 43.9225018,23.3305482 C42.9484438,23.4957268 41.9750464,23.5072893 40.9968589,23.4247 C40.4932295,23.3817536 39.9950509,23.2943741 39.5568321,23.0200125 C39.001667,22.6716509 38.7576982,22.1159902 38.6194438,21.5091241 C38.2433321,19.8482536 38.373658,18.1626062 38.4232116,16.4858786 C38.4431982,15.7936152 38.5698902,15.0945795 38.8445821,14.4378295 C39.1470241,13.7155036 39.6845152,13.3055304 40.4416937,13.1332491 C41.1313143,12.9759991 41.8248991,12.8737536 42.5283946,12.9352 C43.1719304,12.9908652 43.8187696,13.0605705 44.4201848,13.3412089 C45.0351446,13.6287848 45.3891223,14.1393518 45.5671848,14.7591018 C45.7442562,15.3770348 45.7905062,16.0220571 45.8182562,16.664767 C45.8192473,16.6966464 45.8113187,16.7298473 45.8033902,16.7901375 L43.0389616,16.7901375 C43.0239304,16.4630839 43.0199661,16.1494098 42.9932071,15.837883 C42.9492696,15.3213696 42.4578634,15.0397402 41.9752116,15.2278786 C41.5933188,15.3770348 41.5293946,15.703758 41.503792,16.0398964 C41.4188902,17.1297446 41.4606804,18.2200884 41.4897518,19.3110929 C41.5014795,19.7507982 41.4907429,20.1895125 41.5563188,20.6287223 C41.6298232,21.124258 41.9714125,21.373017 42.4616625,21.2535929 C42.8349661,21.1629098 42.9732205,20.980883 42.9910598,20.4931107 C43.0060911,20.073392 42.993042,19.653508 42.993042,19.1976152" id="Fill-13" fill="#FFFFFF"></path>
        <path d="M24.6459643,10.5481714 L27.7172946,10.5481714 L27.7172946,13.1333813 L29.0971964,13.1333813 L29.0971964,15.3038277 L27.8055,15.3038277 C27.7090357,15.4181313 27.7253884,15.5131089 27.7253884,15.6032964 C27.7239018,17.1875241 27.7239018,18.7727429 27.7262143,20.3569705 C27.7262143,20.5013366 27.7143214,20.6476848 27.7680045,20.7857741 C27.9160045,21.1729527 28.3289509,21.3610911 28.7800536,21.2476134 C28.8416652,21.2317563 28.904433,21.2188723 28.9939598,21.1987205 L28.9939598,23.4030286 C28.9629062,23.4119482 28.9273929,23.4309437 28.890558,23.4319348 C28.0237009,23.4388723 27.158,23.5237741 26.2893259,23.4378812 C25.4475759,23.3543009 24.8958795,22.8586 24.7407768,22.0239527 C24.6801562,21.6970643 24.6619866,21.3729839 24.6619866,21.0432875 C24.6631429,19.2425107 24.6631429,17.4404125 24.6619866,15.6388098 C24.6619866,15.5421804 24.680817,15.4407607 24.5922812,15.3243098 L23.8430312,15.3243098 L23.8430312,13.1323902 L24.6459643,13.1323902 L24.6459643,10.5481714 Z" id="Fill-15" fill="#FFFFFF"></path>
        <path d="M97.6510277,13.1344054 L97.6510277,15.2997312 L96.3642866,15.2997312 C96.2585723,15.4112268 96.2757509,15.5067 96.2757509,15.597383 C96.2747598,17.1885482 96.2737688,18.7808696 96.276742,20.3718696 C96.276742,20.5083071 96.276742,20.6534991 96.319358,20.7808518 C96.4521616,21.1719946 96.8738625,21.3622804 97.3236438,21.2519411 C97.3912018,21.2347625 97.4599161,21.2227045 97.5484518,21.2050304 L97.5484518,23.4014098 C97.5157464,23.4121464 97.4797375,23.4341152 97.4438938,23.4341152 C96.5633268,23.4441911 95.6776393,23.5735259 94.8046705,23.4250304 C93.7835366,23.251758 93.288992,22.843767 93.2283714,21.5431509 C93.1727063,20.3423027 93.211358,19.1369946 93.2093759,17.933008 C93.2083848,17.1639366 93.2093759,16.3937089 93.2083848,15.624142 C93.2083848,15.5336241 93.2257286,15.439142 93.1368625,15.3226911 L92.3864563,15.3226911 L92.3864563,13.1344054 L93.1984741,13.1344054 L93.1984741,10.5482045 L96.2704652,10.5482045 L96.2704652,13.1344054 L97.6510277,13.1344054 Z" id="Fill-17" fill="#FFFFFF"></path>
        <path d="M62.1290835,13.9700308 C62.1395835,14.0005308 62.1505835,14.0330308 62.1155835,13.9215308 C62.1450835,14.0365308 62.1365835,14.0060308 62.1290835,13.9735308 L62.1290835,13.9700308" id="Fill-19" fill="#FFFFFF"></path>
        <path d="M49.9302629,13.9700308 C49.9392629,14.0005308 49.9512629,14.0330308 49.9152629,13.9215308 C49.9452629,14.0365308 49.9362629,14.0060308 49.9302629,13.9735308 L49.9302629,13.9700308" id="Fill-21" fill="#FFFFFF"></path>
        <path d="M25.6580134,28.4701951 C25.5932634,28.3448246 25.4953125,28.2422487 25.3638304,28.1631281 C25.232183,28.0833469 25.0822009,28.0432085 24.9137188,28.0432085 C24.8360848,28.0432085 24.7587813,28.0526237 24.680817,28.0691415 C24.603183,28.0863201 24.5344688,28.1140701 24.4738482,28.1527219 C24.4132277,28.1915388 24.3654911,28.2412576 24.3284911,28.3018781 C24.2918214,28.362829 24.273817,28.4333603 24.273817,28.5159496 C24.273817,28.6583335 24.3326205,28.767021 24.4480804,28.8426728 C24.5645313,28.9183246 24.7475491,28.9820835 24.9972991,29.033454 C25.3555714,29.1069585 25.619692,29.213829 25.7894955,29.3539004 C25.9596295,29.4939719 26.0455223,29.6822754 26.0455223,29.9199674 C26.0455223,30.0922487 26.0116607,30.2384317 25.9449286,30.3571951 C25.8783616,30.4757933 25.790817,30.5730835 25.6832857,30.6479094 C25.5757545,30.7235612 25.4535223,30.7772442 25.3180759,30.8089585 C25.1827946,30.8410031 25.0453661,30.8578513 24.9071116,30.8578513 C24.6781741,30.8578513 24.4565045,30.8099496 24.2402857,30.7157978 C24.0243973,30.6211504 23.848317,30.4716638 23.7098973,30.2699808 L24.05925,30.0113112 C24.1368839,30.1449406 24.2511875,30.2569317 24.4024911,30.3476147 C24.5537946,30.4381326 24.7199643,30.4830612 24.9001741,30.4830612 C24.9946563,30.4830612 25.0851741,30.4739763 25.1722232,30.4569629 C25.2582813,30.4402799 25.3332723,30.4092263 25.3990134,30.3664451 C25.4635982,30.323829 25.5154643,30.2679987 25.5539509,30.2012665 C25.5926027,30.1346996 25.6119286,30.050954 25.6119286,29.9526728 C25.6119286,29.7934406 25.5349554,29.6728603 25.3816696,29.5934094 C25.2283839,29.5136281 25.0075402,29.4386371 24.7189732,29.3700879 C24.6284554,29.3481192 24.532817,29.3211951 24.4313973,29.2898112 C24.3299777,29.2580969 24.2364866,29.2101951 24.1497679,29.1475924 C24.0635446,29.0848246 23.9925179,29.0061996 23.9368527,28.9117174 C23.8810223,28.8172353 23.8521161,28.697646 23.8521161,28.5554272 C23.8521161,28.4001594 23.8821786,28.2676862 23.9427991,28.1573469 C24.0034196,28.0478335 24.084192,27.9574808 24.1856116,27.8856281 C24.2871964,27.8136103 24.4024911,27.7609183 24.5323214,27.7275522 C24.6613259,27.6923692 24.7949554,27.6756862 24.9332098,27.6756862 C25.144308,27.6756862 25.3492946,27.7234228 25.5483348,27.8180701 C25.7462188,27.9122219 25.8958705,28.0468424 25.9951429,28.2189585 L25.6580134,28.4701951 Z" id="Fill-23" fill="#FFFFFF"></path>
        <path d="M26.9897656,28.2492027 C27.0711987,28.0724616 27.2073058,27.9328857 27.3977567,27.8293187 C27.5877121,27.725917 27.7898906,27.6745464 28.0056138,27.6745464 C28.3898192,27.6745464 28.6773951,27.7885196 28.8694978,28.0177875 C29.0616004,28.2465598 29.1570737,28.5481759 29.1570737,28.9229661 L29.1570737,30.7787473 L28.7172031,30.7787473 L28.7172031,29.104167 C28.7172031,28.9446045 28.7043192,28.7992473 28.6785513,28.6699125 C28.6524531,28.540908 28.608846,28.4290821 28.5460781,28.336417 C28.4833103,28.2440821 28.3997299,28.1712384 28.2941808,28.1198679 C28.1889621,28.068167 28.0568192,28.0419036 27.896596,28.0419036 C27.7801451,28.0419036 27.6665022,28.0661848 27.5569888,28.1139214 C27.4474754,28.1618232 27.349029,28.2333455 27.2623103,28.3304705 C27.1760871,28.4280911 27.1075379,28.5504884 27.0553415,28.6998098 C27.003971,28.8476446 26.9778728,29.0240554 26.9778728,29.2268946 L26.9778728,30.7790777 L26.5380022,30.7790777 L26.5380022,25.8891312 L26.9778728,25.8891312 L26.9778728,28.249533 L26.9897656,28.249533 L26.9897656,28.2492027 Z" id="Fill-25" fill="#FFFFFF"></path>
        <path d="M32.4427563,29.2652821 C32.4427563,29.0969652 32.4159973,28.9388893 32.3621491,28.7895679 C32.3086312,28.6404116 32.2318232,28.5107464 32.1322205,28.401233 C32.032783,28.29205 31.9123679,28.2045054 31.7701491,28.1395902 C31.6280955,28.0748402 31.4688634,28.0419696 31.291792,28.0419696 C31.1145554,28.0419696 30.9564795,28.0738491 30.8160777,28.1395902 C30.6755107,28.2045054 30.556417,28.29205 30.4569795,28.401233 C30.3570464,28.5107464 30.2807339,28.6400813 30.2267205,28.7895679 C30.1727071,28.9390545 30.1461134,29.0969652 30.1461134,29.2652821 C30.1461134,29.4335991 30.1728723,29.591675 30.2267205,29.7409964 C30.2804036,29.8901527 30.3570464,30.0198179 30.4569795,30.1290009 C30.556417,30.2385143 30.6755107,30.3253982 30.8160777,30.3878357 C30.9564795,30.4504384 31.1145554,30.4813268 31.291792,30.4813268 C31.4688634,30.4813268 31.6280955,30.4502732 31.7701491,30.3878357 C31.9123679,30.3250679 32.0331134,30.2385143 32.1322205,30.1290009 C32.2318232,30.0198179 32.3084661,29.890483 32.3621491,29.7409964 C32.4159973,29.591675 32.4427563,29.4335991 32.4427563,29.2652821 M32.9085598,29.2652821 C32.9085598,29.4942196 32.868917,29.7051527 32.7889705,29.8992375 C32.7093545,30.0933223 32.5981893,30.2613089 32.455475,30.4036929 C32.3132563,30.5460768 32.1431223,30.6575723 31.9450732,30.7373536 C31.7470241,30.8168045 31.5288232,30.8567777 31.2912964,30.8567777 C31.0583946,30.8567777 30.8425063,30.8171348 30.6444571,30.7373536 C30.446408,30.6579027 30.2762741,30.5464071 30.1338902,30.4036929 C29.9916714,30.2616393 29.8801759,30.0933223 29.8002295,29.8992375 C29.7209437,29.7051527 29.6808054,29.4942196 29.6808054,29.2652821 C29.6808054,29.0363446 29.7207786,28.8254116 29.8002295,28.6313268 C29.8798455,28.437242 29.9913411,28.2692554 30.1338902,28.1268714 C30.2759438,27.9844875 30.446408,27.872992 30.6444571,27.7932107 C30.8425063,27.7137598 31.0583946,27.6737866 31.2912964,27.6737866 C31.5281625,27.6737866 31.746033,27.7132643 31.9450732,27.7932107 C32.1431223,27.8726616 32.3132563,27.9841571 32.455475,28.1268714 C32.5978589,28.268925 32.7091893,28.437242 32.7889705,28.6313268 C32.868917,28.8254116 32.9085598,29.0363446 32.9085598,29.2652821" id="Fill-27" fill="#FFFFFF" fill-rule="nonzero"></path>
        <path d="M35.6380862,28.4432545 C35.5649121,28.3269687 35.4578763,28.2313304 35.3181353,28.1556786 C35.1774031,28.080192 35.0254388,28.0418705 34.8622424,28.0418705 C34.6850058,28.0418705 34.5259388,28.0730893 34.3835549,28.1355268 C34.2413362,28.1979643 34.1199299,28.284683 34.0183451,28.3938661 C33.9169254,28.5043705 33.8391263,28.6337054 33.7854433,28.7823661 C33.7317603,28.9315223 33.7051665,29.0919107 33.7051665,29.2640268 C33.7051665,29.4361429 33.7317603,29.5962009 33.7854433,29.7422187 C33.8391263,29.8887321 33.9157692,30.0169107 34.0157022,30.1274152 C34.1151397,30.2367634 34.2357201,30.3238125 34.3776085,30.38625 C34.5198272,30.4488527 34.6790594,30.4795759 34.856296,30.4795759 C35.0502156,30.4795759 35.2145683,30.4425759 35.3478674,30.3702277 C35.4814969,30.296558 35.5920013,30.2017455 35.6782246,30.0852946 L36.0075906,30.3310804 C35.8782558,30.4903125 35.7200147,30.6175 35.5318763,30.7121473 C35.3439031,30.8069598 35.1189299,30.8545312 34.856296,30.8545312 C34.6103451,30.8545312 34.3886754,30.814558 34.1894701,30.7351071 C33.991421,30.6554911 33.8224433,30.5439955 33.6820415,30.4012812 C33.5419701,30.2590625 33.4331174,30.0910759 33.3556487,29.8969911 C33.2776844,29.7029062 33.2391978,29.4919732 33.2391978,29.2630357 C33.2391978,29.033933 33.2776844,28.8231652 33.3556487,28.6290804 C33.4331174,28.4346652 33.5418049,28.2670089 33.6820415,28.1241295 C33.8227737,27.9822411 33.991421,27.8704152 34.1894701,27.7909643 C34.3876844,27.711183 34.609354,27.6712098 34.856296,27.6712098 C35.0591353,27.6712098 35.2652781,27.7153125 35.474229,27.8038482 C35.6831799,27.8923839 35.8519924,28.0227098 35.9813272,28.1946607 L35.6380862,28.4432545 Z" id="Fill-29" fill="#FFFFFF"></path>
        <polygon id="Fill-31" fill="#FFFFFF" points="36.7367384 29.1170344 36.7565598 29.1170344 38.1538054 27.7516683 38.7875955 27.7516683 37.2611804 29.1358647 38.9431937 30.778896 38.2963545 30.778896 36.7568902 29.1877308 36.7370687 29.1877308 36.7370687 30.778896 36.2971982 30.778896 36.2971982 25.8887844 36.7370687 25.8887844"></polygon>
        <path d="M42.1394156,28.1198348 L41.2856076,28.1198348 L41.2856076,29.8859241 C41.2856076,29.9987411 41.2965094,30.0909107 41.3173219,30.1649107 C41.3392906,30.2380848 41.3698487,30.2952366 41.4106478,30.3360357 C41.4514469,30.3766696 41.5001746,30.4045848 41.5560049,30.4206071 C41.6116701,30.4356384 41.6722906,30.4434018 41.7372058,30.4434018 C41.7978263,30.4434018 41.8617504,30.4346473 41.9281522,30.4176339 C41.9947192,30.4009509 42.0584781,30.3768348 42.1190987,30.3469375 L42.1380942,30.7285 C42.0602951,30.7583973 41.9798531,30.7808616 41.8951165,30.7957277 C41.811371,30.8110893 41.7190362,30.8190179 41.6205897,30.8190179 C41.5389915,30.8190179 41.4521076,30.8079509 41.3619201,30.7871384 C41.2712371,30.7653348 41.1876567,30.7245357 41.1091969,30.66375 C41.0315629,30.6029643 40.9681344,30.5216964 40.9182504,30.4179643 C40.8683665,30.3143973 40.8437549,30.1794464 40.8437549,30.0109643 L40.8437549,28.1223125 L40.2167371,28.1223125 L40.2167371,27.7539643 L40.8437549,27.7539643 L40.8437549,26.8981741 L41.2834603,26.8981741 L41.2834603,27.7519821 L42.1372683,27.7519821 L42.1372683,28.1203304 L42.1394156,28.1203304 L42.1394156,28.1198348 Z" id="Fill-33" fill="#FFFFFF"></path>
        <path d="M42.8965777,28.2492027 C42.9781759,28.0724616 43.1144482,27.9328857 43.3037429,27.8293187 C43.4936982,27.725917 43.6957116,27.6745464 43.9119304,27.6745464 C44.2958054,27.6745464 44.5833813,27.7885196 44.7756491,28.0177875 C44.9675866,28.2465598 45.0630598,28.5481759 45.0630598,28.9229661 L45.0630598,30.7787473 L44.6233545,30.7787473 L44.6233545,29.104167 C44.6233545,28.9446045 44.6104705,28.7992473 44.5845375,28.6699125 C44.5589348,28.540908 44.5148321,28.4290821 44.4522295,28.336417 C44.3894616,28.2440821 44.3058812,28.1712384 44.2006625,28.1198679 C44.0951134,28.068167 43.9628054,28.0419036 43.8025821,28.0419036 C43.6861313,28.0419036 43.5724884,28.0661848 43.4631402,28.1139214 C43.3526357,28.1618232 43.2550152,28.2333455 43.168792,28.3304705 C43.0822384,28.4280911 43.0135241,28.5504884 42.9614929,28.6998098 C42.9099571,28.8476446 42.8838589,29.0240554 42.8838589,29.2268946 L42.8838589,30.7790777 L42.4439884,30.7790777 L42.4439884,25.8891312 L42.8838589,25.8891312 L42.8838589,28.249533 L42.8967429,28.249533 L42.8967429,28.2492027 L42.8965777,28.2492027 Z" id="Fill-35" fill="#FFFFFF"></path>
        <path d="M48.1158406,29.0323638 C48.1029567,28.7477612 48.0112826,28.5123817 47.8413138,28.3239129 C47.6715103,28.1357746 47.4282022,28.0422835 47.1141978,28.0422835 C46.9678496,28.0422835 46.8315772,28.0692076 46.7062067,28.1228906 C46.5803406,28.1765737 46.4709924,28.2502433 46.3768406,28.3427433 C46.2821933,28.4354085 46.2065415,28.5407924 46.1498853,28.6592254 C46.0942201,28.7776585 46.0613496,28.9020379 46.0524299,29.0313728 L48.1158406,29.0313728 L48.1158406,29.0323638 Z M48.5626487,29.1747478 L48.5626487,29.2722031 C48.5626487,29.3070558 48.5606665,29.3438906 48.5557112,29.3817165 L46.0463183,29.3817165 C46.0499522,29.5330201 46.081171,29.675404 46.1370013,29.8085379 C46.1925013,29.9420022 46.2703004,30.0584531 46.3697379,30.1578906 C46.4691754,30.2574933 46.5856263,30.3361183 46.7187603,30.3937656 C46.8523897,30.4515781 46.9967558,30.4813103 47.1515281,30.4813103 C47.380796,30.4813103 47.5775237,30.4286183 47.7436933,30.3230692 C47.9098629,30.2173549 48.0363897,30.0952879 48.1217871,29.9580246 L48.4511531,30.2163638 C48.2701174,30.4453013 48.0710772,30.6083326 47.8532067,30.7082656 C47.6356665,30.8077031 47.4017737,30.8572567 47.1515281,30.8572567 C46.9280415,30.8572567 46.7200817,30.817779 46.527979,30.7376674 C46.3360415,30.6582165 46.1708629,30.546721 46.0334344,30.4043371 C45.8951799,30.2619531 45.7864924,30.0936362 45.7067112,29.8995513 C45.6274254,29.7054665 45.5872871,29.4945335 45.5872871,29.265596 C45.5872871,29.0366585 45.626104,28.8257254 45.7035728,28.6318058 C45.7813719,28.437721 45.8889031,28.2695692 46.0269924,28.1273504 C46.1654121,27.9849665 46.326296,27.873471 46.5124522,27.7935246 C46.6974522,27.714404 46.8988049,27.6741004 47.1146933,27.6741004 C47.3515594,27.6741004 47.5616665,27.7140737 47.7417112,27.7935246 C47.9227469,27.8731406 48.0740504,27.9806719 48.1946308,28.1169442 C48.3148808,28.2522254 48.4065549,28.4114576 48.4691576,28.5926585 C48.5310996,28.7738594 48.5626487,28.9676138 48.5626487,29.1747478 Z" id="Fill-37" fill="#FFFFFF" fill-rule="nonzero"></path>
        <polygon id="Fill-39" fill="#FFFFFF" points="50.84355 27.7517344 51.5751259 30.2097567 51.5880098 30.2097567 52.4028357 27.7517344 52.8298223 27.7517344 53.6581929 30.2097567 53.6710768 30.2097567 54.39555 27.7517344 54.8611884 27.7517344 53.903483 30.7787969 53.4252911 30.7787969 52.6172375 28.3278772 52.6041884 28.3278772 51.8081929 30.7787969 51.3296705 30.7787969 50.3721304 27.7517344"></polygon>
        <path d="M57.7587839,29.2652821 C57.7587839,29.0969652 57.732025,28.9388893 57.678342,28.7895679 C57.6246589,28.6404116 57.5480161,28.5107464 57.4484134,28.401233 C57.3486455,28.29205 57.2283955,28.2045054 57.0861768,28.1395902 C56.9437929,28.0748402 56.7847259,28.0419696 56.6074893,28.0419696 C56.4307482,28.0419696 56.2725071,28.0738491 56.131775,28.1395902 C55.9915384,28.2045054 55.8724446,28.29205 55.7726768,28.401233 C55.6730741,28.5107464 55.5965964,28.6400813 55.5427482,28.7895679 C55.4889,28.9390545 55.4621411,29.0969652 55.4621411,29.2652821 C55.4621411,29.4335991 55.4890652,29.591675 55.5427482,29.7409964 C55.5964313,29.8901527 55.6730741,30.0198179 55.7726768,30.1290009 C55.8724446,30.2385143 55.9915384,30.3253982 56.131775,30.3878357 C56.2725071,30.4504384 56.4307482,30.4813268 56.6074893,30.4813268 C56.7847259,30.4813268 56.9437929,30.4502732 57.0861768,30.3878357 C57.2283955,30.3250679 57.3489759,30.2385143 57.4484134,30.1290009 C57.5478509,30.0198179 57.6243286,29.890483 57.678342,29.7409964 C57.7318598,29.591675 57.7587839,29.4335991 57.7587839,29.2652821 M58.224092,29.2652821 C58.224092,29.4942196 58.1847795,29.7051527 58.104833,29.8992375 C58.025217,30.0933223 57.9137214,30.2613089 57.7715027,30.4036929 C57.6291187,30.5460768 57.4586545,30.6575723 57.2606054,30.7373536 C57.0628866,30.8168045 56.8446857,30.8567777 56.6068286,30.8567777 C56.3739268,30.8567777 56.1580384,30.8171348 55.9599893,30.7373536 C55.7622705,30.6579027 55.5919714,30.5464071 55.4495875,30.4036929 C55.3075339,30.2616393 55.195708,30.0933223 55.116092,29.8992375 C55.0366411,29.7051527 54.9963375,29.4942196 54.9963375,29.2652821 C54.9963375,29.0363446 55.0363107,28.8254116 55.116092,28.6313268 C55.1953777,28.437242 55.3068732,28.2692554 55.4495875,28.1268714 C55.5918062,27.9844875 55.7622705,27.872992 55.9599893,27.7932107 C56.1580384,27.7137598 56.374092,27.6737866 56.6068286,27.6737866 C56.844025,27.6737866 57.0615652,27.7132643 57.2606054,27.7932107 C57.4586545,27.8726616 57.6289536,27.9841571 57.7715027,28.1268714 C57.9135562,28.268925 58.0248866,28.437242 58.104833,28.6313268 C58.1847795,28.8254116 58.224092,29.0363446 58.224092,29.2652821" id="Fill-41" fill="#FFFFFF" fill-rule="nonzero"></path>
        <path d="M58.7675955,28.1009714 C58.7639616,27.9716366 58.7570241,27.8551857 58.7490955,27.7517839 L59.1689795,27.7517839 C59.1777339,27.8333821 59.1840107,27.9239 59.1874795,28.0236679 C59.1914438,28.1232705 59.194417,28.2048688 59.194417,28.2692884 L59.2074661,28.2692884 C59.2940196,28.0923821 59.4236848,27.9490071 59.5959661,27.8393286 C59.7680821,27.7298152 59.9620018,27.67415 60.1775598,27.67415 C60.2333902,27.67415 60.2844304,27.6761321 60.3298545,27.6810875 C60.3746179,27.6845562 60.4218589,27.6939714 60.4695955,27.7068554 L60.4114527,28.1269045 C60.3856848,28.1176545 60.3427384,28.1097259 60.2821179,28.1009714 C60.2218277,28.0920518 60.1617027,28.0880875 60.100917,28.0880875 C59.9846313,28.0880875 59.8721446,28.1100563 59.7646134,28.1526723 C59.6575777,28.1957839 59.5626,28.2631768 59.4829839,28.355842 C59.4038634,28.4485071 59.338783,28.5664446 59.2888991,28.7108107 C59.2391804,28.8550116 59.2144036,29.0286143 59.2144036,29.2306277 L59.2144036,30.7790116 L58.774533,30.7790116 L58.774533,28.4186098 C58.7737071,28.3358554 58.771725,28.2303063 58.7675955,28.1009714" id="Fill-43" fill="#FFFFFF"></path>
        <polygon id="Fill-45" fill="#FFFFFF" points="60.7211295 30.7788795 61.2211295 30.7788795 61.2211295 25.888933 60.7211295 25.888933"></polygon>
        <path d="M62.1887576,29.2652821 C62.1887576,29.4335991 62.2146906,29.591675 62.2667219,29.7409964 C62.3180924,29.8901527 62.3930835,30.0198179 62.4895478,30.1290009 C62.5861772,30.2385143 62.7065924,30.3253982 62.8488112,30.3878357 C62.9911951,30.4502732 63.1524094,30.4813268 63.3346013,30.4813268 C63.5025879,30.4813268 63.658021,30.4502732 63.7999094,30.3878357 C63.9421281,30.3250679 64.0655165,30.2404964 64.1680924,30.1319741 C64.2716594,30.024608 64.3524317,29.8960991 64.4110701,29.7469429 C64.4700388,29.5977866 64.4984496,29.4373982 64.4984496,29.2652821 C64.4984496,29.0931661 64.4698737,28.9317866 64.4110701,28.7836214 C64.3532576,28.6354563 64.2716594,28.5059563 64.1680924,28.3954518 C64.0646906,28.2861036 63.9413022,28.1992196 63.7999094,28.1367821 C63.658021,28.0741795 63.5022576,28.0432911 63.3346013,28.0432911 C63.1530701,28.0432911 62.9910299,28.0751705 62.8488112,28.1410768 C62.7069228,28.2066527 62.5871683,28.2933714 62.4895478,28.4027196 C62.3920924,28.512233 62.3184228,28.6414027 62.2667219,28.7908893 C62.2148558,28.9398804 62.1887576,29.0969652 62.1887576,29.2652821 Z M64.4341951,30.2682464 C64.3048603,30.4623313 64.1362129,30.6086795 63.9292442,30.708117 C63.7222754,30.8075545 63.5091951,30.8572732 63.2893424,30.8572732 C63.0524763,30.8572732 62.8379094,30.8164741 62.6459719,30.7350411 C62.453704,30.6534429 62.2895165,30.5407911 62.1539049,30.3987375 C62.0176326,30.2563536 61.9120835,30.0882018 61.8374228,29.8939518 C61.7619362,29.699867 61.7241103,29.4910813 61.7241103,29.2669339 C61.7241103,29.043117 61.761771,28.833175 61.8374228,28.6390902 C61.9130746,28.4450054 62.018954,28.2768536 62.1539049,28.1344696 C62.2901772,27.9922509 62.4535388,27.8797643 62.6459719,27.7981661 C62.8379094,27.7165679 63.0519808,27.6757688 63.2893424,27.6757688 C63.5091951,27.6757688 63.7222754,27.7266438 63.9292442,27.8280634 C64.1362129,27.929483 64.3045299,28.0789696 64.4341951,28.2780098 L64.4467487,28.2780098 L64.4467487,25.8908491 L64.886454,25.8908491 L64.886454,30.7788134 L64.4467487,30.7788134 L64.4467487,30.2682464 L64.4341951,30.2682464 Z" id="Fill-47" fill="#FFFFFF" fill-rule="nonzero"></path>
        <polygon id="Fill-48" fill="#FF0000" points="11.4341067 0.78601875 2.85588795 19.7529786 10.6179594 19.7529786 -4.95535714e-05 36.9982821 20.1112674 15.742608 11.4341067 16.1107911 25.8832674 -6.60714286e-05"></polygon>
    </g>
</svg>